<?xml version="1.0" encoding="UTF-8"?>
<svg id="Layer_1" data-name="Layer 1" xmlns="http://www.w3.org/2000/svg" width="429" height="270" viewBox="0 0 429 270">
  <g>
    <path d="m17.00146,255.66693h27.0651v13.57066H0v-73.19011h17.00146v59.61945Z" style="fill: #121f35;"/>
    <path d="m72.12277,216.32724c3.43078,0,6.63285.53368,9.45373,1.60103,2.8971,1.06736,5.33678,2.59215,7.39526,4.65062,2.05848,2.05847,3.6595,4.57438,4.80309,7.47149,1.1436,2.97335,1.7535,6.3279,1.7535,10.06364,0,1.1436-.07624,2.13471-.15249,2.89711s-.30495,1.29607-.53369,1.75352c-.30495.45744-.60991.7624-1.06735.91487s-.99111.22872-1.7535.22872h-30.03844c.53368,4.34566,1.82975,7.47149,3.96446,9.45372,2.13471,1.98223,4.87934,2.97335,8.31012,2.97335,1.82976,0,3.35455-.22872,4.65062-.68616,1.29608-.45744,2.43968-.91487,3.50703-1.44856.99111-.53368,1.98224-.99112,2.82088-1.44856.83864-.45744,1.7535-.68616,2.66839-.68616,1.21984,0,2.21095.45744,2.82088,1.37232l4.49814,5.5655c-1.60104,1.82975-3.35454,3.35455-5.18429,4.49814s-3.73574,2.05847-5.71798,2.74463-3.88823,1.06736-5.87047,1.37232c-1.98224.22872-3.81199.3812-5.5655.3812-3.65951,0-7.09029-.60992-10.29236-1.75352-3.20207-1.1436-6.02293-2.97335-8.38637-5.26054-2.36344-2.36343-4.26943-5.26054-5.64173-8.76757-1.37232-3.50703-2.05847-7.54773-2.05847-12.12211,0-3.50703.60992-6.78533,1.75352-9.91116,1.21984-3.12583,2.89711-5.87046,5.10806-8.15765,2.21095-2.36343,4.95558-4.19318,8.08141-5.5655,3.04958-1.44856,6.63284-2.13472,10.67355-2.13472Zm.22872,10.7498c-2.97334,0-5.33678.83864-7.01405,2.51591-1.67727,1.67727-2.74463,4.11695-3.27831,7.31901h19.44112c0-1.21983-.15249-2.43967-.45744-3.58326-.30495-1.1436-.83864-2.21095-1.52479-3.12583s-1.67728-1.67727-2.82088-2.21095c-1.21982-.60992-2.66838-.91488-4.34565-.91488Z" style="fill: #121f35;"/>
    <path d="m102.23744,269.16135v-51.99548h9.60621c.99111,0,1.7535.22872,2.43968.68616.68615.45744,1.1436,1.06736,1.37231,1.98223l.91489,3.04959c.99111-.91488,2.05848-1.82975,3.12583-2.59215,1.06735-.83864,2.21095-1.44856,3.43079-2.05847,1.21984-.53368,2.5159-.99112,3.96447-1.29608,1.44855-.30496,2.97334-.45744,4.65063-.45744,2.82088,0,5.33678.45744,7.54773,1.44856,2.21095.99112,4.0407,2.36343,5.56549,4.11695,1.52479,1.75352,2.66839,3.81199,3.43079,6.25165.7624,2.43967,1.1436,5.03182,1.1436,7.92893v33.08803h-15.5529v-33.16427c0-2.51591-.60991-4.49814-1.7535-5.9467-1.1436-1.44856-2.8971-2.13471-5.18429-2.13471-1.67728,0-3.2783.3812-4.80309,1.06736-1.52479.7624-2.97334,1.75352-4.34567,2.97335v37.0525h-15.55294Z" style="fill: #121f35;"/>
    <path d="m194.86868,269.16135c-.99111,0-1.7535-.22872-2.43968-.68616-.68615-.45744-1.1436-1.06736-1.37231-1.98223l-1.21984-3.96446c-1.06735,1.06736-2.1347,2.13471-3.2783,2.97335-1.1436.91487-2.36344,1.67727-3.6595,2.36343-1.29608.68616-2.74463,1.1436-4.26943,1.52479s-3.20208.53368-4.95558.53368c-2.74463,0-5.18429-.60992-7.54773-1.82975-2.28719-1.21983-4.26943-2.97335-5.94669-5.1843-1.67728-2.28719-2.97334-5.03182-3.96447-8.38637-.99111-3.27831-1.44855-7.01405-1.44855-11.28348,0-3.88822.53369-7.47149,1.60104-10.82604,1.06735-3.35455,2.59215-6.17541,4.57438-8.61509,1.98224-2.43967,4.34567-4.34566,7.01406-5.71798,2.74463-1.37231,5.79422-2.05847,9.07252-2.05847,2.66839,0,4.95558.3812,6.78533,1.1436,1.82975.7624,3.50703,1.82975,5.03183,3.04959v-26.15021h15.5529v75.09611h-9.52999Zm-15.78161-11.131c1.1436,0,2.1347-.07624,3.04959-.30496.91489-.22872,1.7535-.53368,2.5159-.91487.7624-.3812,1.52479-.91487,2.21095-1.52479.68615-.60992,1.37231-1.29607,2.05848-2.13471v-22.10951c-1.21984-1.29607-2.5159-2.21095-3.81199-2.74463-1.37231-.53368-2.82088-.7624-4.26943-.7624s-2.74463.30496-3.96447.83864c-1.21984.53368-2.28719,1.44856-3.12583,2.74463-.91489,1.21983-1.60104,2.89711-2.05848,4.87934-.53369,1.98223-.7624,4.42191-.7624,7.24277,0,2.74463.22871,5.03182.60991,6.93781.3812,1.90599.99111,3.35455,1.67728,4.57438.68615,1.1436,1.60104,1.98223,2.59215,2.51591.91491.53368,2.0585.7624,3.27834.7624Z" style="fill: #121f35;"/>
    <path d="m278.19867,269.16135h-17.07769v-30.87708h-29.73349v30.95332h-17.07769v-73.19011h17.07769v30.57212h29.73349v-30.57212h17.07769v73.11388Z" style="fill: #c02334;"/>
    <path d="m309.60944,216.32724c3.43079,0,6.63286.53368,9.45374,1.60103,2.8971,1.06736,5.33678,2.59215,7.39526,4.65062,2.05848,2.05847,3.6595,4.57438,4.80309,7.47149,1.1436,2.97335,1.7535,6.3279,1.7535,10.06364,0,1.1436-.07622,2.13471-.15249,2.89711-.07622.7624-.30498,1.29607-.53369,1.75352-.30498.45744-.60991.7624-1.06737.91487-.45742.15248-.99111.22872-1.7535.22872h-30.03846c.53369,4.34566,1.82977,7.47149,3.96447,9.45372,2.1347,1.98223,4.87936,2.97335,8.31015,2.97335,1.82977,0,3.35457-.22872,4.6506-.68616,1.29608-.45744,2.43968-.91487,3.50701-1.44856.99111-.53368,1.98221-.99112,2.82088-1.44856.83862-.45744,1.7535-.68616,2.66839-.68616,1.21982,0,2.21097.45744,2.82088,1.37232l4.49816,5.5655c-1.60102,1.82975-3.35457,3.35455-5.18429,4.49814-1.82977,1.1436-3.73576,2.05847-5.71798,2.74463-1.98221.68616-3.88821,1.06736-5.87047,1.37232-1.98221.22872-3.81199.3812-5.56549.3812-3.6595,0-7.09028-.60992-10.29236-1.75352-3.20208-1.1436-6.02296-2.97335-8.38637-5.26054-2.36341-2.36343-4.2694-5.26054-5.64176-8.76757-1.37231-3.50703-2.05848-7.54773-2.05848-12.12211,0-3.50703.60991-6.78533,1.7535-9.91116,1.21982-3.12583,2.8971-5.87046,5.10807-8.15765,2.21097-2.36343,4.95558-4.19318,8.08139-5.5655,3.1259-1.44856,6.70913-2.13472,10.67361-2.13472Zm.30498,10.7498c-2.97337,0-5.33678.83864-7.01406,2.51591-1.67728,1.67727-2.74461,4.11695-3.2783,7.31901h19.44112c0-1.21983-.15249-2.43967-.45742-3.58326-.30498-1.1436-.83862-2.21095-1.52479-3.12583-.68618-.91487-1.67728-1.67727-2.82088-2.21095-1.29608-.60992-2.66839-.91488-4.34567-.91488Z" style="fill: #c02334;"/>
    <path d="m340.7915,269.16135v-51.99548h9.22499c.7624,0,1.44857.07624,1.90599.22872.53369.15248.99111.3812,1.29608.60992.3812.30496.60991.68616.83862,1.1436.15249.45744.3812,1.06736.45742,1.67727l.83862,4.87934c1.90599-2.97335,4.0407-5.26054,6.40415-7.01405,2.36341-1.67727,4.95558-2.59215,7.77646-2.59215,2.36341,0,4.2694.53368,5.71798,1.67727l-1.98221,11.43596c-.15249.68616-.3812,1.21983-.83862,1.44856-.3812.30496-.91489.45744-1.60102.45744-.53369,0-1.21982-.07624-1.98221-.22872-.7624-.15248-1.7535-.22872-2.8971-.22872-4.11696,0-7.31899,2.21095-9.60618,6.55661v31.94444s-15.55297,0-15.55297,0Z" style="fill: #c02334;"/>
    <path d="m402.16446,216.32724c3.96447,0,7.54775.60992,10.82605,1.82975,3.2783,1.21983,6.02296,3.04959,8.38637,5.33678,2.36341,2.28719,4.11696,5.10806,5.413,8.38637,1.29608,3.27831,1.90599,7.01405,1.90599,11.131s-.60991,7.85269-1.90599,11.20723c-1.29608,3.35455-3.12581,6.17541-5.413,8.46261-2.36341,2.36343-5.10807,4.11695-8.38637,5.33678-3.2783,1.21983-6.86157,1.90599-10.82605,1.90599s-7.62397-.60992-10.90227-1.90599c-3.2783-1.21983-6.09918-3.04959-8.46259-5.33678-2.36341-2.36343-4.19318-5.1843-5.48927-8.46261-1.29608-3.35455-1.90599-7.09029-1.90599-11.20723s.60991-7.85269,1.90599-11.131c1.29608-3.27831,3.12581-6.09918,5.48927-8.38637,2.36341-2.28719,5.18429-4.11695,8.46259-5.33678,3.35452-1.21983,6.93779-1.82975,10.90227-1.82975Zm0,42.08432c3.58328,0,6.25167-1.29607,7.92895-3.81199,1.67728-2.51591,2.5159-6.3279,2.5159-11.51219s-.83862-8.99629-2.5159-11.51219c-1.67728-2.51591-4.34567-3.73575-7.92895-3.73575-3.6595,0-6.40415,1.21983-8.08139,3.73575-1.67728,2.51591-2.59217,6.3279-2.59217,11.51219s.83862,8.99629,2.59217,11.51219c1.7535,2.59215,4.42189,3.81199,8.08139,3.81199Z" style="fill: #c02334;"/>
  </g>
  <g>
    <path d="m214.20726,8.01764l-92.13257,83.97428h21.52105v80.17644h141.36373v-80.17644h21.52104L214.20726,8.01764Zm-4.92311,41.91681l4.92311-15.19132,4.92311,15.19132h15.89463l-12.94075,9.42425,5.06377,15.19132-12.94075-9.42425-12.80011,9.42425,4.92311-15.19132-12.94076-9.42425h15.89463Zm-5.20443,102.40079h-40.51021v-67.09503h15.6133v54.57624h24.89689s0,12.51879.00001,12.51879Zm60.7653,0h-15.6133v-28.27275h-27.28812v28.4134h-15.6133v-67.23568h15.6133v27.99143h27.28812v-27.99143h15.6133v67.09503Z" style="fill: #121f35;"/>
    <path d="m214.34792,7.87698l92.27322,84.11494h-21.52105v80.3171h-141.50436v-80.3171h-21.52104L214.34792,7.87698m0-7.87698l-3.9385,3.51651-92.27323,84.11493-10.97151,10.12755h30.66397v80.3171h153.03855v-80.3171h30.66398l-10.97152-9.98689L218.28642,3.51651l-3.9385-3.51651h0Z" style="fill: #c02334;"/>
  </g>
</svg>