<?xml version="1.0" encoding="UTF-8"?>
<svg id="Layer_1" data-name="Layer 1" xmlns="http://www.w3.org/2000/svg" width="622" height="210" xmlns:xlink="http://www.w3.org/1999/xlink" viewBox="0 0 622 210">
  <defs>
    <filter id="drop-shadow-1" filterUnits="userSpaceOnUse">
      <feOffset dx="2.57085" dy="3.85627"/>
      <feGaussianBlur result="blur" stdDeviation="5.78441"/>
      <feFlood flood-color="#231f20" flood-opacity=".6"/>
      <feComposite in2="blur" operator="in"/>
      <feComposite in="SourceGraphic"/>
    </filter>
  </defs>
  <path d="m218.29414,125.497v-4.17466c1.55792-.5703,3.03042-1.45114,4.58072-1.61956,8.06771-.87648,16.11703-1.82225,24.09345-3.36464,2.56223-.49544,5.20621-.56044,7.80721-.86905,2.17811-.25844,4.46411-.25352,6.49388-.96067,2.87373-1.0012,5.51719-2.65314,7.37842-5.16939,1.55123-2.09713,3.10312-4.23725,4.30423-6.54023,3.28924-6.30679,6.423-12.69515,9.56108-19.07919,2.14943-4.37269,4.20305-8.79226,6.45727-13.52187,1.45473-.07116,2.94494-.14407,4.78787-.23423.65881,1.14972,1.39534,2.28361,1.98414,3.4893,2.28724,4.68356,4.52199,9.39262,6.78686,14.08711,2.77448,5.75075,5.54968,11.5012,8.34257,17.24306,3.31637,6.81807,8.95593,9.97772,16.36926,10.73033,5.17225.5251,10.29144,1.56426,15.43807,2.34934,2.30604.35178,4.61908.66078,6.93281.95914,4.49694.57988,9.00101,1.10771,13.49008,1.74199.61594.08704,1.16293.65979,1.7893,1.03619v3.47803c-.31453.34713-.67165.77844-1.06675,1.17181-9.45004,9.40862-18.93072,18.78692-28.34343,28.23256-3.37139,3.3832-5.46874,7.05342-3.55617,12.23507.97004,2.62804.62032,5.72277,1.0064,8.58784.49231,3.65335,1.11865,7.28889,1.69983,10.9301.53842,3.37328,1.0893,6.7446,1.64293,10.11544.2876,1.75109.42975,3.54657.92242,5.23952,1.2509,4.29845,1.09483,4.97859-2.74281,8.20778-2.20509-1.13036-4.52336-2.24223-6.76802-3.48627-3.94688-2.18745-7.81813-4.51149-11.77719-6.67615-5.03948-2.75537-10.09013-5.49726-15.21776-8.08358-5.92706-2.98953-11.9381-3.05618-17.81511.1864-5.83772,3.22088-11.61296,6.55433-17.42267,9.8259-1.31205.73886-2.64361,1.44498-3.98347,2.13268-2.15846,1.10781-4.30235,2.2505-6.50595,3.26232-2.33575,1.07253-4.73401,2.00951-7.188,3.04056-.96641-.86119-1.77475-1.58149-2.9195-2.6016.37264-2.31512.79351-4.73245,1.14617-7.15965.86621-5.9611,1.64847-11.93481,2.56746-17.88764.58129-3.76548,1.34863-7.50237,2.03071-11.2524.43855-2.41108,1.35705-4.85569,1.19478-7.22631-.23084-3.37193-1.23051-6.60656-3.88162-9.19997-9.13404-8.9352-18.14056-18.00006-27.20617-27.00499-.79433-.78901-1.66546-1.50107-2.41327-2.17043Zm108.99502,65.95959c-.97836-6.17285-1.9334-12.23781-2.90542-18.30003-.21521-1.34235-.52114-2.67033-.73164-4.0133-.42313-2.69963-.65278-5.44109-1.26743-8.09497-.38948-1.68156-.68277-3.15538.18696-4.7889.42467-.79763.33006-1.87039.48706-2.93048,2.72137-2.93942,5.8371-5.65579,8.09227-8.95712,1.64381-2.40635,4.03383-3.66912,5.95831-5.57936,2.67384-2.65411,5.54721-5.10718,8.25236-7.73126,1.55581-1.50916,2.64233-3.26014,1.47219-5.47815-.43894-.30483-.75757-.6967-1.13253-.76079-5.26607-.89992-10.5406-1.75014-15.8111-2.62433-1.61829-.2684-3.2224-.63619-4.84757-.84587-2.59431-.33475-5.22485-.44209-7.79375-.90262-1.70217-.30518-3.52772-.74732-4.94358-1.66958-4.71336-3.07012-6.82628-8.03437-8.90483-12.97441-.83727-1.98996-1.65542-3.99161-2.59292-5.9348-.71228-1.47632-1.64579-2.8449-2.39777-4.30403-1.0514-2.0402-1.95438-4.15904-3.06093-6.16745-.60283-1.09411-1.49484-2.02966-1.81679-2.45538h-4.49076c-1.41792,2.80505-2.83897,5.59488-4.24095,8.3942-2.87005,5.73064-5.58444,11.5454-8.65409,17.16732-1.58089,2.89539-3.55625,5.71437-6.90418,6.96111-4.53819,1.68997-9.29511,2.32059-14.09451,2.70084-3.58856.28431-7.20582.39464-10.75342.94644-2.7847.43315-5.48236,1.42316-8.30495,2.1892v3.60769c6.55438,6.51338,13.09676,12.9329,19.53824,19.45166,3.07781,3.11474,5.36794,6.67886,4.70687,11.36739-.6467,4.58644-1.36297,9.16308-2.04768,13.74419-.24162,1.61664-.42506,3.24415-.73082,4.84855-.79371,4.16499-1.94354,8.29132-1.20253,12.92166.78939.27648,1.64165.72734,2.54128.86108,2.55546.37987,4.5006-1.20603,6.56547-2.28559,6.61596-3.4589,13.14853-7.07953,19.8097-10.44801,3.23901-1.63793,6.73769-2.42558,10.28984-.7494,3.68783,1.74018,7.38998,3.45853,11.00727,5.33702,5.81836,3.02147,11.57213,6.16667,17.26838,9.21425,1.17073-.5819,2.0165-1.00229,3.45393-1.71674Z" style="fill: #21407d;"/>
  <path d="m51.24433,84.13088c-3.8034,1.97727-7.80602.66663-12.05385.97809v-45.1118c-3.04137,5.9622-4.20607,12.36014-5.81357,18.63288-1.60791,6.27437-3.31658,12.52305-4.95992,18.70337h-6.28829c-3.08535-12.04529-6.12646-23.91785-9.16757-35.79041-.20039.03211-.40078.06422-.60117.09634v42.87715c-2.19582.92434-4.31116.36839-6.35922.46816-1.93344.09418-3.87512.02021-6.00073.02021V.47931C1.87869-.34078,3.9892.17732,6.02635.09498c1.93725-.0783,3.88017-.01686,5.68834-.01686,2.23882,7.87558,4.28775,15.46034,6.56204,22.97727,2.26648,7.49111,3.98315,15.15792,7.09316,22.53589C30.39851,30.67134,34.30994,15.53866,38.79364.36322h11.92837c.16227.12348.2966.19123.37914.29858.0765.09948.13751.24131.13753.3645.00582,27.47513.00564,54.95026.00564,83.10457Z" style="fill: #21407d;"/>
  <path d="m608.98448,30.25806c4.01524,0,7.6584-.00861,11.30136.00946.5351.00265,1.06953.13207,1.59484.20158-6.33266,24.79789-12.6235,49.43216-18.97552,74.30608-2.10862,0-3.90886.00001-5.7091.00001-1.79133,0-3.58271-.00001-5.89096-.00001,0-1.49969-.19855-2.57249.03476-3.54187.95326-3.96075,1.83808-7.95677,3.13139-11.81187,1.29717-3.86665.80677-7.58216-.1622-11.32056-1.87155-7.2208-3.87982-14.40633-5.75142-21.62712-1.87166-7.2208-3.64703-14.46646-5.46039-21.70228-.2641-1.05386-.50498-2.11351-.81619-3.42074-2.99206,2.80971.03198,6.82258-2.28112,9.89168h-5.98401c-.7958,3.29217-1.02421,24.10839-.40019,32.72662,2.50361.16485,5.06901.33376,7.70655.50742.76928,3.66004.39602,6.92785.34515,10.50373-5.21267,0-10.10074.07119-14.98515-.03031-2.40804-.05003-3.27752-.73614-5.90343-3.69987v-39.63448h-5.56343c-.95928-3.68781-.10937-7.16008-.52418-10.48752,1.76353-1.60559,4.50796.56585,6.01645-2.32932v-12.98212c2.12366-1.00742,4.23954-.46316,6.27277-.55693,1.949-.08987,3.90536-.0194,6.25805-.0194.33397,4.99913.01045,9.85124.21472,14.96343h21.32378c2.22108,9.84621,3.79043,19.55917,6.27869,28.9668,3.6945-.53978,2.86765-3.32901,3.21491-4.81175,1.8281-7.80649,3.13525-15.7344,4.71387-24.10067Z" style="fill: #21407d;"/>
  <path d="m305.15967.07896c6.69104,0,13.12261.1622,19.54089-.05881,4.06663-.14003,8.01642.47621,11.98287,1.03167,4.64822.65093,10.22058,6.80647,10.26806,11.51393.19227,19.05689.5851,38.12113.22911,57.17011-.17268,9.2393-5.28648,14.54398-15.03538,15.15174-8.79703.54842-17.65554.11574-26.43772.11574-.99425-3.40718-1.38746-66.252-.54784-84.92439Zm12.64289,73.46883c6.28807,1.91491,12.02504.82959,15.85842-3.13533.27483-1.39311.85818-2.99342.86521-4.59624.06874-15.69358.07639-31.38774.00551-47.0813-.01123-2.48638-.52688-4.95853-2.82226-6.53299-4.62103-.89042-9.21419-1.6839-13.90687-.66069v62.00655Z" style="fill: #21407d;"/>
  <path d="m455.57313.21646h12.28165v31.56283c3.54672.57156,6.51643-.77178,9.57856-.98171,4.62387-.317,9.40751-1.49908,14.16119,1.56045.21837,2.5849.62722,5.30963.64745,8.03723.07791,10.50827-.03393,21.0181.07188,31.52588.03141,3.11892-.6181,5.98995-1.97114,8.97112-.87201.59766-1.87284,1.32664-2.91595,1.98934-1.99771,1.26908-4.09438,2.1587-6.55798,2.14317-8.28526-.05222-16.57103-.01985-24.82884-.01985-.92566-3.26643-1.29593-70.10549-.46682-84.78846Zm20.49477,74.65123c1.04167-.7769,2.33729-1.74317,3.35522-2.50235v-31.45398h-11.29183v33.95633h7.93661Z" style="fill: #21407d;"/>
  <path d="m159.26444,84.90631c-1.07126-.99476-2.2923-2.12859-3.37209-3.13126,0-4.84084-.0111-9.31706.00321-13.79321.01357-4.24515.05373-8.49022.08232-12.75498.75171-.81866,1.51043-1.64496,2.39937-2.61308,6.69107-1.86872,13.73165-.37335,20.8025-1.10653v-11.53389h-11.28811c-1.27813,2.32138.82229,5.44251-1.41189,7.93058h-8.81956c-1.93118-2.12137-.77093-4.76354-.96844-7.15526-.19505-2.36183-.04261-4.75221-.04261-7.26327.8348-.89271,1.68907-1.80624,2.77174-2.96401h28.66551c.85476.78936,1.87623,1.73267,3.3362,3.08093.15266,3.9299.43711,8.20463.46197,12.48087.06686,11.49744.02284,22.99552.02285,34.49335,0,1.36262-.00001,2.72525-.00001,4.25327h-11.942c-.25591-.27218-.7107-.75588-1.43044-1.52139-6.02419,1.10327-12.25074,2.61914-19.2705,1.59789Zm20.54787-10.09606v-13.86471h-11.37538v14.69125c3.95696.89645,7.48508-.79669,11.37538-.82653Z" style="fill: #21407d;"/>
  <path d="m437.39366,51.66883v-11.52376c-1.73057-.9264-3.71803-.27778-5.61384-.39595-1.92413-.11993-3.86164-.02648-5.63933-.02648-1.19516,2.77285.5439,5.64153-1.42955,8.14552h-9.88319c-.33299-4.52237-.34587-9.10017.03944-13.65465.17126-2.02483,1.44716-3.52475,3.72179-3.74048.97365-.09235,1.95095-.20509,2.92682-.20762,6.88366-.01788,13.77418.17655,20.64857-.07574,4.4887-.16474,7.45141,2.77111,7.38308,7.34518-.23027,15.40197-.08764,30.80948-.08764,46.45861-3.43797,2.41312-7.36001.41134-10.82362,1.37853-1.06556-.77298-1.944-1.41022-2.38101-1.72723-2.555.26739-4.58324.49205-6.61416.6893-3.01657.29297-6.0319.72594-9.05397.78632-1.70941.03415-3.43143-.55735-5.47667-.92639-.44246-1.95783-1.1292-3.64441-1.15474-5.3409-.11802-7.8375-.05206-15.67777-.05206-23.2542,1.97026-3.20103,4.70754-4.03218,8.00731-3.95923,5.03466.11131,10.07365.02917,15.48276.02917Zm-11.30306,9.20487v14.37839c3.94964-.87157,7.90196,1.06801,11.25569-1.07747v-13.30092h-11.25569Z" style="fill: #21407d;"/>
  <path d="m259.57229,104.57565h-10.89854c-1.09396-5.82562,1.10016-10.97689,2.5276-16.17564.76707-2.79374.77659-5.23624-.00762-8.02827-2.20017-7.83322-4.03064-15.76932-6.03952-23.65658-1.23654-4.8549-2.57392-9.68443-3.78894-14.54454-.94677-3.78728-1.77462-7.60415-2.70968-11.64251,2.0156-.572,4.24445-.18739,6.42951-.25775,2.08725-.06721,4.17839-.01449,6.3902-.01449,2.44177,10.83976,3.68987,21.73472,7.05753,32.20463,3.52442-10.52855,4.12602-21.58271,7.0962-31.98286h12.93724c-6.39568,24.95043-12.70684,49.57105-18.99398,74.09802Z" style="fill: #21407d;"/>
  <path d="m408.01479,47.95117h-11.70794v-8.01366h-10.91173v7.09053c1.71543,2.3167,4.87764,3.25962,7.49247,4.92509,3.67686,2.34193,7.65966,4.20557,11.33882,6.54428,2.40003,1.52563,4.03522,3.74587,3.97219,6.882-.08159,4.06056.04124,8.12549-.05566,12.1854-.09444,3.95654-1.52818,6.12261-4.57333,7.06908-.90712.28196-1.91002.3512-2.86979.35559-6.46378.02955-12.9289-.05513-19.39126.04571-3.1499.04916-5.78816-.71887-7.75943-3.69636v-14.48663h11.62071v8.61997c3.80902,1.45291,7.05323-1.05847,10.74165-.32022v-7.59693c-3.14223-2.71928-7.32677-4.51083-11.04429-6.99765-3.74022-2.50197-8.34857-3.78478-11.31271-7.92204v-19.2679c.79441-.83587,1.74283-1.83381,2.95599-3.1103,8.25506,0,16.67548-.08605,25.0913.07238,1.68946.03181,3.36133.9933,4.89105,1.47849,2.30604,5.27894,1.5772,10.5456,1.52195,16.14318Z" style="fill: #21407d;"/>
  <path d="m128.74754,15.44394h12.31688c.65515,4.7382-.03733,9.61243.39325,14.90435h7.32798v11.06908h-7.26731v32.78032h7.29372v10.74084c-4.99077,0-10.00122.26145-14.96861-.08736-3.60927-.25345-5.06876-2.37282-5.08114-6.20991-.03521-10.92608-.01389-21.85235-.01479-32.77855-.0001-1.36933-.00001-2.73867-.00001-4.43705h-5.7412v-10.8098h3.77338c1.82634-.81099,2.00726-1.95747,1.98763-3.31536-.05622-3.88659-.01979-7.77452-.01979-11.85657Z" style="fill: #21407d;"/>
  <path d="m82.66277.35371h12.2595v42.54669c0,7.01054.00015,14.02107-.00004,21.03161-.00019,6.9415.00099,13.88307-.00111,21.01152h-12.25835V.35371Z" style="fill: #21407d;"/>
  <path d="m213.09218,84.93342h-11.97497c-.78424-2.94295-.96649-49.50755-.20501-54.50435h11.61399c.3927.56887.77198,1.11828,1.26463,1.83191,5.85088-2.00894,11.92402-1.98386,18.01773-1.72363,2.50775,1.36556,3.1784,3.81636,3.26995,6.28578.18586,5.01296.05553,10.03759.05553,15.42269-4.09026.41338-8.02016.81055-12.38075,1.25124v-12.66575h-9.56317c-.03254,3.55387-.0787,7.12733-.09425,10.70093-.01643,3.78026-.00368,7.56065-.00368,11.34098v22.06019Z" style="fill: #21407d;"/>
  <path d="m530.26027,84.21914c-3.60233,1.89602-7.60228.58082-11.66916.86974V.59964c1.67645-.97072,3.67432-.27558,5.57295-.40096,1.94122-.1282,3.89768-.02839,6.09621-.02839v84.04885Z" style="fill: #21407d;"/>
  <path d="m98.51391,155.63085c-1.95188-1.11387-3.11769-1.77915-4.62969-2.64199.50514-1.33503.958-2.5319,1.42596-3.76871h8.24851c1.49117,1.35965,3.34251,1.7827,5.98766.92985,2.34074-.7547,5.24372-.65192,7.73796.64399,2.74205,1.42469,5.31797.99872,7.70084-.77476,4.10781-.00785,8.44552-1.07655,11.3553,3.45186,0,3.40303-.07524,7.04679.03436,10.68499.0488,1.61991.49844,3.22499.70869,4.84421.08907.686.30878,1.57287-.00857,2.05662-1.52641,2.32678-.44631,4.19158.95444,6.3091,1.00152.20919,2.17159.45359,3.42393.71518-2.01782,2.91584-4.07725,3.32277-14.16806,2.88316-.36615-.64892-.80783-1.43171-1.38824-2.46036,1.68334-.75039,3.1212-1.39133,4.64128-2.06893.00407-3.53019-.02089-6.89994.54542-10.33271.56495-3.42438-.33803-7.08973-.61483-10.88812-1.65277-.11195-3.00901-.20381-4.41603-.29912-.43523.38515-.82647.77963-1.2651,1.11186-3.2244,2.44218-4.38303,5.74497-4.59246,9.69941-.11997,2.26514-1.07417,4.42771.03173,6.75762.31883.67172-.31341,1.79265-.57951,3.03349.63464,1.41117,1.78843,2.65547,3.97142,2.29464v2.04217c-.38436.13091-.7498.30577-1.13457.37752-1.47413.27491-2.94981.54962-4.4343.75792-.82777.11617-1.80252.39627-2.49112.09772-4.50923-1.95494-8.95346.70603-13.44528.09007-1.13309-.15538-2.37317.46561-3.86696.79702-.75545-.6955-1.64071-1.51049-2.73577-2.51866.5879-.93813,1.00176-1.78277,1.58176-2.49229,2.59118-3.16981,3.83927-6.47248,2.3735-10.6751-.6563-1.88178-.12806-4.15313-.2853-6.23658-.12082-1.60094-.47317-3.18449-.66697-4.42109Zm16.71723.82723c-1.18372-1.96166-2.69867-1.71283-4.38299-.94299-3.62437,1.65661-5.293,4.70062-5.64209,8.41337-.28625,3.0444-.19417,6.13919-.05153,9.20154.05964,1.28017.68392,2.53413.95178,3.45667,2.14397.68076,3.80192,1.20722,5.37483,1.70665,2.32582-.33637,3.48476-2.14704,3.6328-3.99857.29766-3.7226.50691-7.58562-.19583-11.20759-.46982-2.42147-.57235-4.50106.31304-6.62909Z" style="fill: #c02831;"/>
  <path d="m539.14499,30.46069h11.83136v54.27726h-11.59131c-.79997-2.60691-1.06402-48.0467-.24005-54.27726Z" style="fill: #21407d;"/>
  <path d="m104.71376,30.43625h11.82661v54.32875h-11.63641c-.78078-2.69664-.99287-49.08972-.1902-54.32875Z" style="fill: #21407d;"/>
  <path d="m61.03387,30.45961h11.81109v53.74685c-3.48864,2.16918-7.70948.32333-11.60238,1.05954-.7649-3.30689-.90383-50.10515-.20871-54.8064Z" style="fill: #21407d;"/>
  <path d="m366.56095,84.23679c-3.7662,1.93573-7.91161.46136-12.1418.99856V30.54258c4.00932-.57356,7.97896-.19479,12.1418-.26471v53.95892Z" style="fill: #21407d;"/>
  <path d="m509.97682,84.24741c-3.64368,1.84782-7.63755.5492-11.72024.85354V30.52577h11.72024v53.72164Z" style="fill: #21407d;"/>
  <path d="m199.49766,149.54844c-.34445-1.71356-.68679-3.41651-1.07784-5.36175-1.86942-.38267-3.8515-.78841-5.97627-1.22336-.58017-.80514-1.2787-1.77454-1.97728-2.7439q2.92198-2.94535,11.81622-2.83624c.6647.57515,1.48874,1.28819,2.38917,2.06733,0,3.96223.00463,7.87369-.00129,11.78514-.00615,4.06149.77363,8.33847-.2563,12.12437-1.04978,3.85883.44048,7.53629-.61009,11.04367,1.03361,2.40391,3.24372,2.50092,4.93047,2.81616,1.484,1.41352,1.01791,2.48185-.12126,3.70231h-6.03239c-2.13473-1.95727-4.90321-1.63309-7.67131-.46776-2.86857,1.20763-5.63316.87595-8.39571-.27082-.74232-.30816-1.47496-.63959-2.49998-1.08565-2.38678-3.42912-6.35019-6.3291-6.39275-11.56893-.03855-4.74588.01879-9.38606,3.73151-13.92362-.17448.08588.5939-.067,1.01086-.53287,3.60908-4.03238,8.00016-3.60679,12.63688-2.46859,1.5512.38076,3.37587.81557,4.49735-1.05549Zm-12.43346,26.4682c2.13654.35237,4.52033.74551,6.2454,1.03002,2.53488-2.25419,4.51093-4.01145,6.3087-5.61016,0-2.73996.07703-5.12396-.02245-7.50061-.09292-2.21981-.8113-4.16542-2.35217-5.94107-2.50284-2.88419-5.55151-3.40137-8.67896-2.85983-4.21721,2.49209-5.09837,6.06622-5.10884,10.43301-.00888,3.70789,1.50403,6.60328,3.60832,10.44864Z" style="fill: #c02831;"/>
  <path d="m460.50882,169.15243c1.81321-4.84227,4.47815-8.74075,3.95844-13.66931-.85532-.92746-1.69952-1.84286-2.4947-2.70512,1.03013-3.70758,1.62367-4.28321,4.96721-4.36894,3.21038-.08232,6.42452-.0178,9.55493-.0178,2.62044,1.78755,1.39469,3.61985.26235,5.58865-2.96502.06586-5.10299,1.16076-5.65436,4.5726-.19917,1.23251-1.43496,2.29308-2.17664,3.44559-.43907.68227-1.11175,1.3549-1.20876,2.09342-.6163,4.69024-3.46233,8.51298-4.95578,12.87013-1.25757,3.66921-2.57204,7.40863-4.90238,10.66399-2.76338,3.86024-3.71319,4.44311-8.58597,4.42989-1.14584-.76165-2.29085-1.52448-3.69893-2.46255-.2209-.65644-.41193-1.60522-.8407-2.43124-1.67872-3.23438-1.70658-3.21998.85862-6.00405h4.8876c1.58042,1.26636,2.48116,2.71616,1.45772,5.53946,3.57648-2.5526,3.46948-6.57663,6.01465-8.94424-2.55361-7.8438-6.31082-14.94134-10.23549-21.87951h-3.66237c-.81459-1.13002-1.52924-2.12138-2.25563-3.12907.37867-1.10415.76578-2.23305,1.20124-3.50277h13.8162c.64426,1.13816,1.23713,2.18539,1.81656,3.20898-1.52939,1.35263-2.95751,2.61565-4.30081,3.80373,1.20891,3.44426,3.13757,6.29948,3.54796,9.78438.11462.97261,1.47172,1.79959,2.62904,3.11379Z" style="fill: #c02831;"/>
  <path d="m146.48216,158.47437v-4.80788c1.50011-1.1806,3.10169-2.44105,4.70672-3.7042,3.18216-.28982,6.3255-.72919,9.47884-.81901,2.98601-.08507,5.63344,1.09333,7.87075,3.08203,1.63507,1.45338,2.59149,3.24882,2.37858,5.49221-.25886,2.72748.3821,5.4578-.65998,8.23329-.47145,1.2557.58409,3.08187.959,4.70154-.10763,1.287-.22869,2.73447-.34798,4.16088.87337.7819,1.59255,1.42573,2.25715,2.0207,1.12524-.31847,2.13975-.6056,3.45853-.97885.09159,1.20203.16099,2.11271.21933,2.87823-1.46185,1.14776-2.74956,2.15881-4.32058,3.3923-1.44449-.66303-3.0549-1.36563-4.63208-2.13595-1.74254-.85108-3.28543-.94833-5.04633.24191-2.05909,1.39182-4.66635,2.2569-6.97805,1.52401-1.63818-.51935-2.82028.11163-4.16014.22083-4.4495-1.77516-7.57581-4.76461-7.66005-9.60663-.08075-4.6406,2.82547-7.51,7.54117-8.91471,3.85998,2.48397,8.00347-.61486,12.17935.0061,1.11999-1.05578,2.12901-2.00696,3.47571-3.27644-1.76054-2.17544-3.37474-4.17003-5.04866-6.23843-2.43824.28909-4.5906.54428-6.19593.73462-1.31108,2.3807-2.33561,4.24104-3.13579,5.69402-3.06382,1.01339-5.02281.54455-6.33956-1.90058Zm7.59307,18.5597c.97467-.16718,2.17086-.37381,3.36761-.57721,1.3391-.22761,2.67871-.45226,4.03464-.68098,1.88423-1.93805,4.4058-3.478,4.37312-6.57768-.90257-1.94173-2.69104-1.92124-4.01842-1.39711-2.1941.86634-4.3727.67224-6.56459.64702-2.03773-.02347-3.77281.48746-5.1808,1.84948q-.1709,3.64313,3.98844,6.73649Z" style="fill: #c02831;"/>
  <path d="m386.73527,163.32403c4.31662,2.45496,8.32488-.50592,12.32601.10144,1.09401-1.09139,2.07471-2.06974,3.39286-3.38476-1.67681-2.05395-3.30448-4.0477-5.00676-6.13284-2.44962.32827-4.59421.61565-6.18763.82917-1.36022,2.38987-2.42017,4.25214-3.29125,5.78259-2.79832.71952-4.72803.46985-6.06864-1.92147v-4.47304c1.70029-4.1178,5.82997-4.25246,9.3043-4.86344,3.48707-.61323,7.14341-.44503,10.52503,1.46177,2.93076,1.65258,4.80187,3.75343,4.54779,7.21985-.16984,2.31765.24384,4.60199-.61676,6.99481-.55618,1.54628.45359,3.65298,1.03397,5.42678-.16578,1.43733-.33155,2.87465-.50382,4.36832.80684.7536,1.51302,1.41316,2.19899,2.05384,1.10405-.29163,2.12631-.56168,3.43831-.90823.15746,1.07719.28763,1.96728.40297,2.75651-1.44093,1.15278-2.72422,2.17943-4.3453,3.4763-1.3794-.59315-3.06919-1.13053-4.55693-2.00855-1.76878-1.04388-3.2181-.80886-5.03899.00799-3.78,1.69572-7.72143,2.62997-11.90947,1.15667-4.00278-1.4081-6.93894-4.9532-7.0964-8.89893-.14974-3.75216,2.1613-6.72051,6.56004-8.44942.2548-.10016.46728-.30753.89167-.59537Zm14.54874,6.06022c-.88776-2.11926-2.66169-2.08532-4.00994-1.59255-2.18784.79966-4.36386.73584-6.55708.65475-2.05533-.07599-3.78186.4575-5.22214,1.83265-.32419,4.55656,1.41107,6.57357,5.66314,6.66123,5.23316.10788,8.1823-2.05214,10.12602-7.55607Z" style="fill: #c02831;"/>
  <path d="m417.57183,182.00592c-.67696-.91085-1.51014-2.03187-2.86353-3.85278-.25195-1.5939-.65342-4.13453-1.11448-7.05177,1.48408-.46791,2.59907-.81944,3.62257-1.14214,2.479,2.10292,4.71969,4.06349,7.03731,5.92888.60276.48509,1.59953,1.11499,2.15301.9236,2.94314-1.01784,6.44465-.02875,9.18285-2.66025.07013-.7283.16045-1.66643.27965-2.90407-1.06546-.76454-2.20347-1.58116-3.77205-2.70674-3.45023-.33612-7.57622-.73806-11.5944-1.12952-2.12551-2.0061-4.25663-4.0175-6.49604-6.13108v-5.85515c.88987-.92742,2.14358-2.13355,3.2803-3.44089,1.9956-2.29505,4.7631-2.69978,7.47242-2.81734,4.61707-.20034,9.24923-.0552,13.79153-.0552,2.50093,3.27621,1.21561,6.53637.28032,9.95042h-4.14968c-3.69455-3.39159-7.20894-5.15213-13.15489-.86583-.25071,2.56526,1.8629,3.36416,3.54147,3.99496,2.02016.75918,4.28722,1.11426,6.45876,1.16561,3.40131.08045,6.24641,1.01877,8.54549,4.0618,0,.41031-.1279,1.12178.01988,1.77079,1.38476,6.08114-.11122,8.92645-5.76831,11.1096-3.9087,1.50845-7.74285,2.49547-11.97245.9417-1.20418-.44237-2.89118.42303-4.77973.76538Z" style="fill: #c02831;"/>
  <path d="m215.48558,170.61198c2.07971,2.12113,4.17131,4.25437,6.11794,6.23976h5.16177c2.84654-1.51539,6.08784-2.74154,8.0657-5.67012h2.58788v4.0045c-2.75113,1.75872-5.80878,3.7134-9.13371,5.83893-1.74975-.9351-3.83968-1.26585-5.74681-.07992-1.3525-.57316-2.60466-1.07233-3.83077-1.62873-6.27797-2.84875-9.99866-11.09078-8.68316-17.6228.72477-3.59894,3.0547-6.02988,4.87816-8.8706.07402-.11535.19304-.20284.29471-.29953,2.08645-1.98461,9.41619-3.75504,12.2884-2.89461,2.051.61441,4.24893,1.04217,6.05345,2.10635,3.03075,1.78732,4.4695,4.87183,4.80226,8.26261.18019,1.83609.82829,3.94557-.8657,5.60001-3.44093.77711-6.81361,1.05723-10.4558.59111-3.46874-.44394-7.12578.57646-11.11803.99711-.09786.80523-.24113,1.98447-.41628,3.42593Zm13.63114-16.26896c-4.74418-.54213-8.66534-.41442-11.68049,3.08809-.03092,1.58789-1.96473,3.08659-.78882,4.62021h16.50141v-2.78651c-1.71342-2.09149-3.03799-3.70834-4.0321-4.92179Z" style="fill: #c02831;"/>
  <path d="m354.44969,166.85181c-.47526.96201-.88647,1.7943-1.26674,2.56402,1.01031,1.40775,1.96089,2.75216,2.93194,4.08166,3.41459,4.67503,9.28324,4.28374,13.15649,1.16582,1.15523-.92997,2.17185-2.05158,3.39861-2.8655.78921-.52362,1.84589-.64609,2.96991-1.00881.62021,2.73847.01977,4.66659-1.84295,5.92009-4.9782,3.35005-10.30477,4.80982-16.25384,2.64711-3.32508-1.2088-5.56626-3.55096-7.19691-6.49779-2.4274-4.38665-3.20878-9.0533-1.27217-13.81984,2.43675-5.99745,7.17572-9.28114,13.48269-9.82028,2.42243-.20709,5.14125.27376,7.37355,1.90036.72448.52792,1.75513.63767,2.52266.89708q4.36432,6.20019,4.24394,11.88903c-2.09737,2.81305-5.42288,2.94236-8.45569,2.68136-1.48915-.12815-2.73465-.16625-4.23204.07281-2.59763.4147-5.30922.11512-7.97299.12462-.54452.00194-1.08891.04583-1.58645.06826Zm11.78147-12.59636c-3.78551-.42655-7.13131-.08616-10.14283,2.51757-.60616,1.21875-1.32536,2.66477-2.21003,4.44345,1.17645.47081,2.26675,1.29813,3.33069,1.26567,4.76972-.14548,9.66445.97892,14.3583-1.12383v-2.963c-1.86035-1.44331-3.69241-2.86466-5.33612-4.13987Z" style="fill: #c02831;"/>
  <path d="m116.66678,9.60115v12.36839h-11.97927c-.89834-1.8032-.31264-3.9139-.40983-5.94177-.09899-2.06551-.02188-4.13942-.02188-6.42663h12.41098Z" style="fill: #21407d;"/>
  <path d="m538.90633,9.53732h12.16981v12.54294c-4.0122.20568-7.98048.10108-12.16981.06274v-12.60569Z" style="fill: #21407d;"/>
  <path d="m509.99031,22.03324h-12.12692v-11.93045h12.12692v11.93045Z" style="fill: #21407d;"/>
  <path d="m60.58133,10.32494h12.34652v11.70052h-11.89571c-.1469-.35111-.42733-.71308-.43085-1.07772-.03349-3.4652-.01997-6.93084-.01997-10.6228Z" style="fill: #21407d;"/>
  <path d="m354.36339,10.38022h12.27712v11.56716h-12.27712v-11.56716Z" style="fill: #21407d;"/>
  <path d="m475.47487,180.91494c.66795-.48362,1.098-.79497,1.75096-1.26775-.78622-1.18034-1.58207-2.37504-2.65386-3.98402-.37784.76424-.61578,1.16836-.78087,1.60023-.18115.47386-.29499.97331-.58891,1.97568-1.88685-2.45835-.5075-4.96125-1.29202-7.0715-2.441.69713-1.29171,2.89472-1.85353,4.36794-.29365-1.12691-.58762-2.25531-.99219-3.80821.56852-.82262,1.41745-2.05107,2.32179-3.35965,3.44786.23857,7.21038-1.21852,9.25407,3.02361,1.50942,3.13313,1.00331,5.26426-2.23277,8.52368h-2.93269Z" style="fill: #21407d;"/>
  <path d="m327.28916,191.4566c-1.43743.71446-2.2832,1.13484-3.45393,1.71674-5.69625-3.04758-11.45002-6.19278-17.26838-9.21425-3.61729-1.87849-7.31944-3.59684-11.00727-5.33702-3.55215-1.67618-7.05083-.88853-10.28984.7494-6.66117,3.36848-13.19374,6.98911-19.8097,10.44801-2.06488,1.07955-4.01001,2.66546-6.56547,2.28559-.89963-.13374-1.75189-.5846-2.54128-.86108-.74101-4.63034.40882-8.75668,1.20253-12.92166.30576-1.6044.48919-3.23191.73082-4.84855.68471-4.58111,1.40098-9.15775,2.04768-13.74419.66107-4.68854-1.62906-8.25266-4.70687-11.36739-6.44148-6.51876-12.98386-12.93828-19.53824-19.45166v-3.60769c2.8226-.76604,5.52025-1.75605,8.30495-2.1892,3.5476-.5518,7.16486-.66213,10.75342-.94644,4.7994-.38025,9.55632-1.01086,14.09451-2.70084,3.34794-1.24674,5.3233-4.06573,6.90418-6.96111,3.06965-5.62192,5.78404-11.43667,8.65409-17.16732,1.40198-2.79932,2.82304-5.58915,4.24095-8.3942h4.49076c.32195.42572,1.21396,1.36127,1.81679,2.45538,1.10655,2.00841,2.00952,4.12725,3.06093,6.16745.75198,1.45914,1.68549,2.82771,2.39777,4.30403.9375,1.94319,1.75565,3.94484,2.59292,5.9348,2.07855,4.94004,4.19147,9.9043,8.90483,12.97441,1.41586.92226,3.2414,1.3644,4.94358,1.66958,2.5689.46053,5.19944.56787,7.79375.90262,1.62517.20968,3.22928.57747,4.84757.84587,5.27049.87419,10.54503,1.72441,15.8111,2.62433.37496.06409.69359.45596,1.13253.76079,1.17014,2.21802.08362,3.96899-1.47219,5.47815-2.70515,2.62409-5.57852,5.07716-8.25236,7.73126-1.92449,1.91024-4.31451,3.17301-5.95831,5.57936-2.25516,3.30133-5.3709,6.0177-8.09227,8.95712-.157,1.0601-.06238,2.13286-.48706,2.93048-.86974,1.63352-.57645,3.10734-.18696,4.7889.61465,2.65388.8443,5.39534,1.26743,8.09497.2105,1.34297.51643,2.67094.73164,4.0133.97203,6.06222,1.92706,12.12718,2.90542,18.30003Zm-56.50884-14.6855c4.58672-2.43753,8.63635-4.46508,12.56192-6.70869,4.47261-2.55626,8.95709-3.01367,13.70618-.85867,3.92183,1.77961,7.91094,3.41139,11.84225,5.17089.52588.23537.90349.82123,1.3223,1.27025,2.19018,2.34827,5.17076,2.60422,7.70693.42271-.86454-7.218-1.77511-14.59358-3.91645-21.5508.81609-5.15067,4.00698-8.73653,7.5194-12.0732,2.80599-2.66555,5.76728-5.16768,8.60813-7.79775,1.60594-1.48674,2.38183-3.28801,1.80245-5.26275-7.34021-1.59482-14.37382-3.25275-21.46667-4.60049-2.84994-.54152-4.88019-1.92862-6.24036-4.27957-2.88717-4.9903-5.61137-10.0742-8.44133-15.09787-.85887-1.52464-1.8455-2.97766-2.73378-4.39971-1.65805.14949-2.87352.25909-4.13756.37307-2.54122,5.18827-5.00879,10.20811-7.45975,15.23601-1.79218,3.67641-4.50137,6.41224-8.25987,8.07919-1.23656.54842-2.48911,1.06098-3.73433,1.58995-.00631-.09609-.01262-.19219-.0189-.28829-6.13936.8141-12.27869,1.62822-18.33337,2.43109-1.8946,2.02512-.87517,3.92087.43492,5.25345,4.00232,4.07096,8.15599,8.00447,12.40613,11.81918,3.58459,3.21735,4.27213,7.31371,3.89776,11.69302-.28902,3.3808-.97728,6.73197-1.57702,10.08046-.40233,2.24628-.96024,4.46484-1.46503,6.77112.49954.83336,1.05235,1.75563,1.63482,2.72739h4.34121Z" style="fill: #c02831;"/>
</svg>