<?xml version="1.0" encoding="UTF-8"?>
<svg id="Layer_1" data-name="Layer 1" xmlns="http://www.w3.org/2000/svg" width="547" height="270" viewBox="0 0 547 270">
  <g>
    <rect x="198.79977" width="148.64013" height="154.66746" style="fill: #12133d;"/>
    <g>
      <path d="m269.28891,25.94817v97.86753h-25.53954v-41.06759h-7.66186v41.16974h-25.33523V25.94817h25.43738v35.04025h7.55971V25.94817h25.53954Z" style="fill: #fff;"/>
      <path d="m339.98235,25.94817l-12.97408,97.86753h-38.61579l-14.71077-97.86753h26.8676c3.1669,26.96976,5.31222,49.75103,6.64028,68.44597,1.32806-18.89926,2.75827-35.6532,4.18848-50.26182l1.73669-18.18415s26.86759,0,26.86759,0Z" style="fill: #fff;"/>
    </g>
  </g>
  <g>
    <path d="m44.43879,194.19864v74.26898h-19.30789v-31.15823h-5.82301v31.15824H0v-74.26899h19.30789v26.56112h5.82301v-26.56112h19.30789Z" style="fill: #b42025;"/>
    <path d="m71.5107,194.19864v74.26898h-19.30789v-74.26898h19.30789Z" style="fill: #b42025;"/>
    <path d="m79.27471,194.19864h13.68919c9.09207,0,15.32373.30647,18.49063,1.02158,3.26907.71511,5.82303,2.4518,7.86619,5.41438,2.04316,2.86043,3.06475,7.45755,3.06475,13.79135,0,5.82302-.71512,9.70503-2.14533,11.64603s-4.29066,3.1669-8.47912,3.57554c3.77986.91943,6.43595,2.24748,7.66186,3.77985,1.32804,1.63453,2.14533,3.06475,2.45179,4.3928s.51079,5.00575.51079,10.93092v19.61437h-17.87768v-24.62012c0-3.98417-.30646-6.43597-.91942-7.35538-.61296-.91943-2.24749-1.43022-4.90358-1.43022v33.50787h-19.30789v-74.26898h-.1022Zm19.30792,12.76977v16.54962c2.14533,0,3.6777-.30648,4.59712-.91943s1.32804-2.55395,1.32804-5.82302v-4.08633c0-2.34964-.40863-3.88201-1.22591-4.59712-1.02158-.81726-2.55395-1.12374-4.69925-1.12374Z" style="fill: #b42025;"/>
    <path d="m129.84301,194.19864h32.17982v14.81293h-12.87194v14.09783h12.05468v14.09783h-12.05465v16.34531h14.09781v14.81293h-33.50787v-74.16683h.10213Z" style="fill: #b42025;"/>
    <path d="m231.28609,194.19864l-9.80719,74.26898h-29.31941l-11.13523-74.26898h20.32947c2.34963,20.43163,4.08633,37.69637,5.10791,51.89635,1.02158-14.30214,2.04316-26.96976,3.16691-38.105l1.32804-13.79135h20.3295Z" style="fill: #b42025;"/>
    <path d="m234.55513,194.19864h32.17982v14.81293h-12.87194v14.09783h12.05465v14.09783h-12.05465v16.34531h14.19998v14.81293h-33.50787v-74.16683Z" style="fill: #b42025;"/>
    <path d="m311.17375,194.19864v14.81293h-11.44173v59.3539h-19.30789v-59.25174h-11.44173v-14.91509h42.19134Z" style="fill: #b42025;"/>
    <path d="m315.56657,194.19864h32.17979v14.81293h-12.8719v14.09783h12.05465v14.09783h-12.05465v16.34531h14.20001v14.81293h-33.50787v-74.16683h-.00003Z" style="fill: #b42025;"/>
    <path d="m354.59098,194.19864h13.68922c9.0921,0,15.32373.30647,18.4906,1.02158,3.26907.71511,5.82303,2.4518,7.86619,5.41438,2.04316,2.86043,3.06475,7.45755,3.06475,13.79135,0,5.82302-.71512,9.70503-2.1453,11.64603-1.43024,1.94101-4.29066,3.1669-8.47912,3.57554,3.77986.91943,6.43595,2.24748,7.66186,3.77985,1.22591,1.53237,2.1453,3.06475,2.45182,4.3928.30646,1.32806.51079,5.00575.51079,10.93092v19.61437h-17.87768v-24.62012c0-3.98417-.30646-6.43597-.91945-7.35538-.61292-.91943-2.24749-1.43022-4.90358-1.43022v33.50787h-19.30792v-74.26898h-.1022Zm19.30792,12.76977v16.54962c2.1453,0,3.67767-.30648,4.59712-.91943s1.32804-2.55395,1.32804-5.82302v-4.08633c0-2.34964-.40866-3.88201-1.22591-4.59712-.91939-.81726-2.45176-1.12374-4.69925-1.12374Z" style="fill: #b42025;"/>
    <path d="m438.565,194.19864l11.03307,74.26898h-19.71651l-1.02158-13.38272h-6.94674l-1.12371,13.38272h-19.92084l9.80716-74.26898s27.88917,0,27.88917,0Zm-10.31795,47.70787c-1.02158-8.37697-1.94103-18.7971-2.96261-31.15824-1.94103,14.19999-3.16688,24.62012-3.67767,31.15824h6.64028Z" style="fill: #b42025;"/>
    <path d="m495.9779,194.19864v74.26898h-16.95823l-10.01149-33.7122v33.7122h-16.14098v-74.26898h16.14098l10.82874,33.40572v-33.40572h16.14098Z" style="fill: #b42025;"/>
    <path d="m544.60517,216.67344h-17.87768v-5.51654c0-2.55395-.20433-4.18848-.71512-4.90359-.40866-.71511-1.22591-1.02158-2.24749-1.02158-1.12371,0-2.04316.51079-2.65609,1.43022s-.91945,2.34964-.91945,4.29064c0,2.4518.30646,4.3928,1.02158,5.6187.61292,1.2259,2.45182,2.75827,5.41437,4.49496,8.58131,5.10791,13.99568,9.29639,16.24317,12.56546,2.24749,3.26906,3.37121,8.58129,3.37121,15.83452,0,5.31222-.61292,9.19424-1.83883,11.64603-1.22591,2.55395-3.67767,4.59712-7.15107,6.3338-3.57554,1.73669-7.66186,2.55395-12.36111,2.55395-5.21004,0-9.60289-1.02158-13.17843-2.96259-3.67767-1.94101-6.02736-4.49496-7.15107-7.45755-1.12371-3.06475-1.7367-7.35538-1.7367-12.87193v-4.9036h17.87768v8.98992c0,2.75827.20433,4.59712.71512,5.41439.51079.81727,1.43024,1.22589,2.65609,1.22589,1.32804,0,2.24749-.51079,2.86042-1.53237.61292-1.02158.91945-2.55395.91945-4.49496,0-4.3928-.61292-7.25323-1.83883-8.58129s-4.18846-3.57554-8.98991-6.74244c-4.80145-3.1669-7.96832-5.51654-9.5007-6.94676-1.53237-1.43022-2.86042-3.47338-3.882-5.92518-1.02158-2.4518-1.53237-5.82302-1.53237-9.70503,0-5.72086.71512-9.80718,2.1453-12.4633,1.43024-2.65611,3.77986-4.69927,7.04894-6.12949,3.26907-1.53237,7.15107-2.24748,11.74819-2.24748,5.00578,0,9.29637.81726,12.76977,2.4518,3.57554,1.63453,5.82303,3.67769,7.04894,6.12949,1.12371,2.4518,1.7367,6.64028,1.7367,12.56545v2.86044h-.00006Z" style="fill: #b42025;"/>
  </g>
</svg>