<svg version="1.1" id="Layer_1"
	xmlns="http://www.w3.org/2000/svg"
	xmlns:xlink="http://www.w3.org/1999/xlink" x="0px" y="0px" viewBox="0 0 600 188" style="enable-background:new 0 0 600 188;" xml:space="preserve">
	<style type="text/css">
	.st0{fill:#E61E26;}
	.st1{fill:#0D356D;}
	</style>
	<g>
		<polygon class="st0" points="294.5,35 294.3,35 294.3,55 361.2,55 361.5,20.9 	"/>
		<polygon class="st0" points="294.3,105.7 294.3,166.9 294.5,166.8 360.6,118.8 360.7,105.7 	"/>
		<g>
			<polygon class="st1" points="227.2,55 227.6,55 294.1,55 294.3,55 294.3,35 294.5,35 294.5,34.8 226.8,20.6 		"/>
			<polygon class="st1" points="227.7,105.7 227.7,105.7 227.8,118.9 227.9,119 294.5,167.3 294.5,166.8 294.3,166.9 294.3,105.7 
			294.1,105.7 228.1,105.7 		"/>
			<polygon class="st1" points="371.7,105.7 370.7,105.7 370.5,123.5 294.3,180.1 294.3,180.1 218,123.5 217.8,105.7 217.8,105.7 
			212,105.7 212,105.7 212,105.7 0,105.7 0,111.6 212.1,111.6 212.3,126.2 294.3,187.7 294.3,187.7 376.3,126.2 376.5,111.6 
			600,111.6 600,105.7 376.5,105.7 		"/>
			<polygon class="st1" points="377,49.1 377.6,0 294.3,18.6 211,0 211.5,49.1 0,49.1 0,55 203.8,55 211.6,55 216.9,55 217.4,55 
			216.9,7.7 294.3,24.6 371.7,7.7 371.2,55 371.7,55 377,55 380.8,55 600,55 600,49.1 		"/>
			<path class="st1" d="M33.5,90.6c-1,0.5-2.1,0.5-9.9,0.5c-7.2,0-8.3-0.1-9.3-0.8c-0.8-0.6-1-1.3-1-3.6H3.5v1.8
			c0,5.4,0.8,7.6,3.3,9.2c2.4,1.5,6.6,2,16.6,2c10.4,0,14.5-0.3,16.5-1.3c3.3-1.5,4.6-4.7,4.6-11.1c0-5.4-0.9-7.9-3.4-9.6
			c-2.1-1.4-4.4-1.7-15.2-2.1c-7.3-0.2-10-0.4-10.9-0.7c-1-0.3-1.4-1.1-1.4-2.4c0-2.8,0.7-3,9.3-3c7.7,0,8.8,0.1,9.7,0.8
			c0.6,0.6,0.7,1.1,0.8,2.9h9.9c0.1-0.7,0.1-1.5,0.1-1.7c0-4.6-0.9-7-3.1-8.6c-2.4-1.6-5.9-2.1-15.3-2.1c-12.1,0-15,0.3-17.6,1.9
			c-2.4,1.5-3.5,4.8-3.5,10.4c0,3.8,0.6,6.2,1.9,7.9c1.5,1.9,3.9,2.7,8.7,2.9c1.1,0,4.5,0.2,8.1,0.4c3.6,0.2,6.9,0.3,8,0.3
			c3.3,0.1,4.1,0.6,4.1,2.9C34.6,89.3,34.2,90.2,33.5,90.6z"/>
			<polygon class="st1" points="84.1,70.4 84.1,61.6 47,61.6 47,99.2 84.3,99.2 84.3,90.2 57,90.2 57,84.2 82.7,84.2 82.7,75.9 
			57,75.9 57,70.4 		"/>
			<path class="st1" d="M125.6,63.1c-2.2-1.5-2.2-1.5-13.7-1.5H87.2v37.6h10.2v-9.5h14.4c4.2,0,5,0.1,5.7,1c0.8,1,1,2.3,1,6.5v2h10.1
			v-3.5c0.2-8.7-0.7-10.4-5.9-11.1c2.1-0.3,3.1-0.8,4.1-1.7c1.7-1.6,2.2-3.7,2.2-9.1C129,67.3,128.2,64.8,125.6,63.1z M117.5,79.7
			c-0.7,0.5-0.7,0.5-5.7,0.6H97.4V71h14.4c4.7,0.1,4.8,0.1,5.6,0.5c1,0.5,1.4,1.6,1.4,4.1C118.8,77.9,118.5,79.1,117.5,79.7z"/>
			<polygon class="st1" points="203.8,70.4 212.6,70.4 212.6,61.6 203.8,61.6 175.8,61.6 175.5,61.6 164.6,61.6 152.5,89.7 
			150.6,89.7 138.4,61.6 127.2,61.6 143.7,99.2 159.4,99.2 175.5,62.2 175.5,99.2 203.8,99.2 212.8,99.2 212.8,90.2 203.8,90.2 
			185.6,90.2 185.6,84.2 203.8,84.2 211.2,84.2 211.2,75.9 203.8,75.9 185.6,75.9 185.6,70.4 		"/>
			<path class="st1" d="M215.8,99.2h24.2c11.3,0,14.3-0.6,16.8-3.2c2.5-2.5,3.2-6.4,3.2-16.2c0-6.1-0.2-8.5-1-11.2
			c-1-3.5-3.2-5.6-6.5-6.4c-2.9-0.7-4-0.7-12.6-0.7h-24.2V99.2z M225.8,71h14.1c6.2,0,7.6,0.2,8.6,1.6c1,1.2,1.4,3.3,1.4,7.9
			c0,8.5-0.7,9.1-9.9,9.1h-14.2V71z"/>
			<polygon class="st1" points="337.8,61.6 337.8,99.2 349.1,99.2 349.1,85.6 373.5,85.6 373.5,99.2 380.8,99.2 384.8,99.2 
			384.8,61.6 380.8,61.6 373.5,61.6 373.5,75.1 349.1,75.1 349.1,61.6 		"/>
			<path class="st1" d="M414.4,99.8c14.5,0,18-0.5,20.7-2.6c2.7-2.3,3.5-6,3.5-16.8c0-10.8-0.8-14.5-3.5-16.7
			c-2.7-2.1-6.1-2.6-20.8-2.6s-18.1,0.5-20.8,2.6c-2.7,2.2-3.5,6.1-3.5,16.5c0,11,0.8,14.8,3.5,17C396.3,99.3,399.7,99.8,414.4,99.8
			z M401.8,73c1.1-2,2.2-2.2,12.6-2.2c9.9,0,11.2,0.2,12.3,1.8c0.9,1.3,1.2,3.5,1.2,8.9c0,4.5-0.4,6.2-1.6,7.2
			c-1.4,1.1-3.3,1.4-11.8,1.4c-8.7,0-10.7-0.2-12-1.4c-1.3-1.1-1.6-2.6-1.6-7.3C400.8,76.4,401,74.3,401.8,73z"/>
			<polygon class="st1" points="462.8,61.6 443.9,61.6 443.9,99.2 454.9,99.2 454.6,71.2 455.8,71.2 474.4,99.2 493.1,99.2 
			493.1,61.6 482.1,61.6 482.4,89.6 481.3,89.6 		"/>
			<path class="st1" d="M522.7,99.8c14.5,0,18-0.5,20.7-2.6c2.7-2.3,3.5-6,3.5-16.8c0-10.8-0.8-14.5-3.5-16.7
			c-2.7-2.1-6.1-2.6-20.8-2.6c-14.7,0-18.1,0.5-20.8,2.6c-2.7,2.2-3.5,6.1-3.5,16.5c0,11,0.8,14.8,3.5,17
			C504.6,99.3,508,99.8,522.7,99.8z M510.1,73c1.1-2,2.2-2.2,12.6-2.2c9.9,0,11.2,0.2,12.3,1.8c0.9,1.3,1.2,3.5,1.2,8.9
			c0,4.5-0.4,6.2-1.6,7.2c-1.4,1.1-3.3,1.4-11.8,1.4c-8.7,0-10.7-0.2-12-1.4c-1.3-1.1-1.6-2.6-1.6-7.3
			C509.1,76.4,509.3,74.3,510.1,73z"/>
			<path class="st1" d="M596.2,73.8c0-6.5-0.8-9-3.5-10.8c-2.3-1.5-2.3-1.5-14.5-1.5h-26v37.6H563v-9.5h15.2c4.5,0,5.2,0.1,6,1
			c0.8,1,1.1,2.3,1.1,6.5v2h10.6v-3.5c0.2-8.7-0.7-10.4-6.2-11c2.2-0.3,3.2-0.8,4.3-1.7C595.7,81.4,596.2,79.2,596.2,73.8z
			 M584.2,79.7c-0.7,0.5-0.7,0.5-6,0.6H563V71h15.2c5,0.1,5.1,0.1,5.9,0.5c1,0.5,1.4,1.6,1.4,4.1C585.4,77.9,585.1,79.1,584.2,79.7z
			"/>
			<polygon class="st1" points="277.3,78.5 280.1,88.5 286.4,88.5 291.7,74.9 287.3,74.9 283.7,85.1 282.9,85.1 279.8,74.9 
			274.8,74.9 271.7,85.1 271,85.1 267.3,74.9 263.1,74.9 268.2,88.5 274.6,88.5 		"/>
			<rect x="292.4" y="74.9" class="st1" width="4.3" height="13.6"/>
			<polygon class="st1" points="308.1,88.5 308.1,78.4 314.1,78.4 314.1,74.9 297.7,74.9 297.7,78.4 303.7,78.4 303.7,88.5 		"/>
			<polygon class="st1" points="315.1,74.9 315.1,88.5 319.4,88.5 319.4,83.6 328.7,83.6 328.7,88.5 333.1,88.5 333.1,74.9 
			328.7,74.9 328.7,79.8 319.4,79.8 319.4,74.9 		"/>
		</g>
	</g>
</svg>
