<?xml version="1.0" encoding="UTF-8"?>
<svg id="Layer_1" data-name="Layer 1" xmlns="http://www.w3.org/2000/svg" width="455" height="200" viewBox="0 0 455 200">
  <g>
    <path d="m261.4144,49.82684v2.15332h-19.15907v-2.15332c1.18833,0,2.37583-.74291,2.37583-2.52499,0-5.12373-4.45498-9.20787-11.06412-9.20787h-2.52499v8.61371c0,2.30207,1.26249,2.9704,2.67332,3.11915v2.15332h-16.78159v-2.15332c1.41083-.14875,2.67332-.81708,2.67332-3.11915V5.27206c0-2.30166-1.26249-2.96999-2.67332-3.11874V0h24.87572c10.39661,0,16.48575,5.27206,16.48575,14.25743,0,9.72787-6.90663,18.0445-16.63408,21.08906,5.86663,1.03958,11.36161,5.04956,15.22243,11.21286,1.26249,2.00499,2.82248,3.26748,4.5308,3.26748Zm-28.51486-44.77728c-1.18833,0-1.85748.66833-1.85748,1.85624v26.13862h1.85748c7.94497,0,13.29161-6.68289,13.29161-16.85617,0-7.79705-3.63832-11.13869-9.80245-11.13869h-3.48916Z" style="fill: #074953;"/>
    <path d="m318.88995,49.82684v2.15332h-19.82657v-2.15332c2.67332-.22291,3.93581-1.63374,2.96999-3.78748l-3.11832-7.6483h-20.7924l-2.82165,6.98038c-1.11333,2.82165-.29749,4.4554,2.30166,4.4554v2.15332h-14.25661v-2.15332c2.30166-.29708,4.38082-1.85666,5.42081-4.4554l16.48492-40.24772-.2225-.52c-.66915-1.63333-1.85748-2.52457-3.93581-2.59874V0h14.25661l18.78741,45.81686c.89166,2.15332,2.30248,3.86123,4.75248,4.00998Zm-22.12906-16.70825l-8.3908-20.42073-8.16829,20.42073h16.55909Z" style="fill: #074953;"/>
    <path d="m394.85624,0v2.15332c-2.30166.29708-4.23248,1.78208-5.27165,4.30706l-18.26741,45.51978h-5.12414l-12.02994-32.45067-12.84578,32.45067h-5.04997l-18.48991-45.89103c-.89083-2.07916-2.07916-3.78707-4.52997-3.93581V0h19.67906v2.15332c-2.82248.22291-3.86164,1.70791-2.89665,4.15831l11.80661,29.48027,9.50495-23.83655-2.1525-5.86622c-.81749-2.07916-1.85748-3.78707-4.23331-3.93581V0h19.67824v2.15332c-2.82165.22291-4.08415,1.70791-3.19249,4.15831l10.39496,29.10902,11.51077-28.96028c1.03917-2.74749-.07417-4.30706-2.67332-4.30706V0h14.18244Z" style="fill: #074953;"/>
    <path d="m215.37463,99.48021c0-16.33659,12.10411-27.25278,30.29653-27.25278,4.45581,0,8.91162,1.18833,10.84161,1.18833,1.18833,0,2.00499-.52,2.15415-1.41083h1.1875l6.75747,16.18784h-2.44999c-3.11915-6.68289-9.65411-10.84161-17.00574-10.84161-11.50912,0-19.23241,8.83662-19.23241,21.68323,0,12.92077,7.79746,21.53489,19.15824,21.53489,9.28245,0,16.11409-5.64372,18.3424-15.07451h2.44999c-.89083,12.6241-10.61829,21.08948-24.20739,21.08948-17.00574,0-28.29236-10.84161-28.29236-27.10403Z" style="fill: #074953;"/>
    <path d="m288.96509,78.68782v41.43563c0,2.30207,1.26249,2.9704,2.67332,3.11915v2.15332h-16.78242v-2.15332c1.41083-.14875,2.67332-.81708,2.67332-3.11915v-41.43563c0-2.30166-1.26249-2.96999-2.67332-3.11874v-2.15332h16.78242v2.15332c-1.41083.14875-2.67332.81708-2.67332,3.11874Z" style="fill: #074953;"/>
    <path d="m352.97478,99.55438c0,16.26242-10.98995,25.84154-29.40652,25.84154h-22.57324v-2.15332c1.41083-.14875,2.67332-.81708,2.67332-3.11915v-41.43563c0-2.30166-1.26249-2.96999-2.67332-3.11874v-2.15332h21.68323c18.48909,0,30.29653,10.47037,30.29653,26.13862Zm-12.54911-.14875c0-12.62369-7.50079-21.01449-19.08407-21.01449h-4.38164c-1.18833,0-1.85666.66833-1.85666,1.85624v38.3169c0,1.18791.66833,1.85624,1.85666,1.85624h5.49497c11.28744,0,17.97074-7.79705,17.97074-21.0149Z" style="fill: #074953;"/>
    <path d="m403.24869,111.65848l-4.7533,13.73744h-37.72232v-2.15332c1.41083-.14875,2.67332-.81708,2.67332-3.11915v-41.43563c0-2.30166-1.26249-2.96999-2.67332-3.11874v-2.15332h35.42066l.965.51958,3.78748,11.50994h-2.45082c-2.30166-4.97498-5.19748-6.97997-10.98995-6.97997h-10.76745c-1.18833,0-1.85583.66833-1.85583,1.85624v10.54453h5.12331c2.52499,0,3.71249-1.11375,3.78748-3.1929h2.07916l3.63832,13.36619h-2.44999c-1.33666-3.86123-3.26748-4.97498-5.86663-5.04956h-6.31164v22.42572c0,1.18833.66751,1.85666,1.85583,1.85666h11.73327c5.86581,0,10.32162-3.1929,12.32661-8.61371h2.45082Z" style="fill: #074953;"/>
    <path d="m454.48676,123.2426v2.15332h-19.15824v-2.15332c1.18833,0,2.37665-.74291,2.37665-2.52499,0-5.12373-4.45581-9.20787-11.06412-9.20787h-2.52499v8.61371c0,2.30207,1.26249,2.9704,2.67332,3.11915v2.15332h-16.78242v-2.15332c1.41083-.14875,2.67332-.81708,2.67332-3.11915v-41.43563c0-2.30166-1.26249-2.96999-2.67332-3.11874v-2.15332h24.87654c10.39579,0,16.48492,5.27206,16.48492,14.25743,0,9.72787-6.9058,18.0445-16.63326,21.08906,5.86581,1.03958,11.36078,5.04956,15.22243,11.21286,1.26249,2.00499,2.82165,3.26748,4.52915,3.26748Zm-28.51486-44.77728c-1.18833,0-1.85583.66833-1.85583,1.85624v26.13862h1.85583c7.94579,0,13.29243-6.68289,13.29243-16.85617,0-7.79705-3.63914-11.13869-9.80162-11.13869h-3.49081Z" style="fill: #074953;"/>
    <path d="m215.37463,172.89597c0-16.33659,12.10411-27.25278,30.29653-27.25278,4.45581,0,8.91162,1.18833,10.84161,1.18833,1.18833,0,2.00499-.52,2.15415-1.41083h1.1875l6.75747,16.18784h-2.44999c-3.11915-6.68289-9.65411-10.84161-17.00574-10.84161-11.50912,0-19.23241,8.83662-19.23241,21.68323,0,12.92077,7.79746,21.53489,19.15824,21.53489,9.28245,0,16.11409-5.64372,18.3424-15.07451h2.44999c-.89083,12.6241-10.61829,21.08948-24.20739,21.08948-17.00574,0-28.29236-10.84161-28.29236-27.10403Z" style="fill: #074953;"/>
    <path d="m273.29601,172.82139c0-16.03951,12.10411-27.1782,28.44069-27.1782,16.26242,0,28.36653,11.13869,28.36653,27.1782s-12.10411,27.17861-28.36653,27.17861c-16.33659,0-28.44069-11.13869-28.44069-27.17861Zm44.25811,0c0-13.21785-6.38663-22.05448-15.81742-22.05448-9.57912,0-15.89076,8.83662-15.89076,22.05448s6.31164,22.05448,15.89076,22.05448c9.43079,0,15.81742-8.83662,15.81742-22.05448Z" style="fill: #074953;"/>
    <path d="m336.56567,193.09379c0-3.78707,2.67332-6.38622,6.6833-6.38622s6.6833,2.59915,6.6833,6.38622c0,3.86164-2.67332,6.46039-6.6833,6.46039s-6.6833-2.59874-6.6833-6.46039Z" style="fill: #074953;"/>
  </g>
  <g>
    <path d="m170.22836,39.38171c-3.38114,3.37095-7.89947.31973-13.35593,1.13649-6.6787.99915-9.02868,2.83396-9.40509,3.17839.34807-.37495,2.18578-2.71914,3.18566-9.37966.81602-5.44265-2.24827-9.95082,1.13358-13.3225,3.38185-3.37168,18.93954-8.66682,21.80403-9.5468,2.86449-.87998,6.2456-2.02374,7.19388-1.07763.01816.03004.02138.06681.00872.09955.03278-.01244.06943-.00923.09955.00872.94464.94465-.19983,4.31561-1.08344,7.17064-.88362,2.85503-6.1991,18.35748-9.58095,21.72916v.00364Z" style="fill: #074953; fill-rule: evenodd;"/>
    <path d="m140.94416,41.14022c-4.33682,2.54287-9.91392,1.0886-12.45679-3.24822-.01399-.02389-.0279-.04785-.04169-.07187-1.74095-3.05763-1.58843-6.83985.39311-9.74736.76533-1.56096,1.16587-3.27545,1.17137-5.01392-.00388-4.65704-2.78887-8.86155-7.07544-10.68183.4796-.03197.96354-.05014,1.45331-.05087,11.56614-.04745,21.03608,9.18386,21.28374,20.74746.00317.12561-.04544.247-.13443.33571-.0932,3.1969-1.83092,6.11894-4.59537,7.72725l.0022.00363Z" style="fill: #074953; fill-rule: evenodd;"/>
    <path d="m136.6359,53.29134c-31.25718-31.25744-81.935-31.2578-113.19253-.00071-31.25753,31.25704-31.25789,81.93509-.00071,113.19253,2.33537,2.32455,4.81054,4.50447,7.41167,6.52752.7483.67401,1.5523,1.28322,2.40385,1.82103,31.87561,23.02261,75.75346,19.47932,103.52177-8.35968,31.21424-31.29377,31.14967-81.96649-.14405-113.18069ZM15.54028,131.71126c-.49993-1.46276-.9587-2.9488-1.36532-4.46314C4.79622,92.38858,24.16399,56.25025,58.38456,44.75678c6.07013-2.52351,12.80765-2.95483,19.15028-1.22588,15.89097,4.29083,25.34068,20.60164,21.15922,36.5217-.01774.06804-.03619.13603-.05464.20393-4.31026,15.76563-20.58514,25.05209-36.35051,20.74192-.78484-.21222-1.54946-.46219-2.30131-.73176-.63618-.126-1.27519-.23555-1.91705-.32842-20.51843-2.97058-39.55978,11.25464-42.53027,31.77299Zm113.27875,26.09781c-21.36501,21.34098-54.20111,26.13626-80.77689,11.79648-2.20906-1.39082-4.10198-2.53092-5.74086-3.47556-2.59297-1.74483-5.06423-3.66477-7.3957-5.7464-4.96595-3.94986-8.53607-9.38625-10.18772-15.51261-.01987-.07287-.03974-.14578-.0589-.21874-4.1662-15.69467,5.17919-31.79516,20.87395-35.96141,15.82782-4.15042,32.0406,5.24355,36.31077,21.03956.20863.77101.37504,1.54197.52051,2.31293-.11709-.72155-.25298-1.44821-.42577-2.17487.33388,1.15301.72275,2.28943,1.1652,3.40527,7.66856,19.3362,29.56011,28.79491,48.89595,21.12662-1.01263,1.16507-2.07281,2.30131-3.18054,3.40872Zm-21.62438-52.91358c.25369.51013,1.78683,1.73233,2.15016,1.44169,15.72173-12.48105,30.41343-2.61599,33.42614,4.35993,4.58169,10.61642,2.91443,21.16747-3.14115,28.7145-.33139.36621-.65995.73317-1.01299,1.08559-11.56794,11.4528-30.20161,11.45232-41.7692-.00106-11.64919-11.53446-11.74215-30.32855-.20757-41.97778.37504-.37641.75752-.73974,1.14817-1.08998.64576-.70306,1.26455-1.43051,1.85496-2.18072,12.83391-16.30641,10.01883-39.92932-6.28763-52.76314,1.51576.30013,3.03152.64744,4.54585,1.05366,28.41052,7.63472,48.77851,32.54994,50.61218,61.91104-9.46249-14.55856-30.89349-15.03015-39.94617-3.767-.34878.43456-1.71126,2.53167-1.37277,3.21327Z" style="fill: #d93b27; fill-rule: evenodd;"/>
    <path d="m112.16859,112.87708c.01262-.05342.0375-.10317.07267-.14533,5.48273-6.83815,15.40226-8.09231,22.41442-2.83395.29503.22187.57987.45124.85454.68815-3.43092-.84526-7.03721.41641-9.19292,3.21617-.88399,1.15377-1.46349,2.51142-1.68511,3.94792-.00727.08574-.00798.17003-.01889.25579-.53464,3.82756-4.07087,6.49701-7.89843,5.96239-3.74784-.52349-6.4005-3.93162-5.98797-7.69328.15703-1.24416.65609-2.42038,1.44169-3.39785Z" style="fill: #074953; fill-rule: evenodd;"/>
    <path d="m149.33483,58.81393c-2.53294-4.31333-1.08967-9.86332,3.22367-12.39627.00936-.0055.01874-.01099.02812-.01645,1.42517-.819,3.0489-1.22838,4.69201-1.183.06555-.02895.13698-.04215.20854-.03851,11.45799.27207,20.6194,9.61189,20.67045,21.073,0,.48105-.01453.95846-.04506,1.43151-1.83378-4.24217-6.00367-6.99756-10.62516-7.02095-1.89412-.00824-3.76054.45499-5.431,1.34794-.10465.06613-.20346.13879-.31246.20128-4.36647,2.47788-9.91454.95839-12.40911-3.39856Z" style="fill: #074953; fill-rule: evenodd;"/>
  </g>
</svg>