<?xml version="1.0" encoding="UTF-8"?>
<svg id="Layer_1" data-name="Layer 1" xmlns="http://www.w3.org/2000/svg" width="494" height="250" xmlns:xlink="http://www.w3.org/1999/xlink" viewBox="0 0 494 250">
  <defs>
    <filter id="drop-shadow-1" filterUnits="userSpaceOnUse">
      <feOffset dx="2.57085" dy="3.85627"/>
      <feGaussianBlur result="blur" stdDeviation="5.78441"/>
      <feFlood flood-color="#231f20" flood-opacity=".6"/>
      <feComposite in2="blur" operator="in"/>
      <feComposite in="SourceGraphic"/>
    </filter>
  </defs>
  <g>
    <path d="m155.03568,209.18143c3.23199,0,5.75273,1.01806,7.56292,3.05418,1.8088,2.03612,2.77874,5.02614,2.90844,8.96868h-21.91197c.3877-3.87838,1.56614-6.85167,3.5388-8.92126,1.97127-2.0668,4.60567-3.10159,7.90181-3.10159Zm16.77426,27.05107c-.90649,0-2.32759.5174-4.26678,1.5508-2.00404.90649-3.7975,1.61634-5.38107,2.13374-1.58427.5174-3.4098.7754-5.47799.7754-4.07223,0-7.17452-1.05013-9.30757-3.1518-2.13304-2.09887-3.39376-5.38037-3.78146-9.8403h28.60257c2.45589,0,3.68454-1.38902,3.68454-4.16986,0-4.65378-.87302-8.69255-2.61836-12.11908-1.74534-3.42514-4.20263-6.07488-7.36837-7.95062-3.16784-1.87434-6.88445-2.81152-11.15053-2.81152-4.45993,0-8.45198,1.0334-11.97404,3.10159-3.52416,2.06959-6.25409,4.97873-8.19328,8.72602-1.93919,3.75008-2.90844,8.04824-2.90844,12.89587,0,7.62847,2.22997,13.6392,6.6899,18.03498s10.50344,6.59228,18.13121,6.59228c2.52074,0,5.17048-.37236,7.95062-1.11429,2.77874-.74332,5.26741-1.72931,7.466-2.95795,2.39035-1.35695,3.58691-3.03744,3.58691-5.04148,0-1.4211-.33889-2.55212-1.01806-3.39306-.67847-.83955-1.56753-1.26072-2.66578-1.26072Zm-56.13896,13.57365c1.74534,0,3.19991-.50066,4.36301-1.50199,1.16379-1.00272,1.74534-2.43916,1.74534-4.3149v-57.8843c0-1.87434-.58155-3.29684-1.74534-4.26608-1.1631-.96994-2.61767-1.45457-4.36301-1.45457s-3.18457.48462-4.3149,1.45457c-1.13172.96925-1.69653,2.39174-1.69653,4.26608v57.8843c0,1.87574.56481,3.31218,1.69653,4.3149,1.13032,1.00132,2.56955,1.50199,4.3149,1.50199Zm-36.74704-40.62472c3.23199,0,5.75273,1.01806,7.56292,3.05418,1.8088,2.03612,2.77874,5.02614,2.90844,8.96868h-21.91197c.3877-3.87838,1.56614-6.85167,3.5388-8.92126,1.97127-2.0668,4.60567-3.10159,7.90181-3.10159Zm16.77426,27.05107c-.90649,0-2.32759.5174-4.26678,1.5508-2.00404.90649-3.7975,1.61634-5.38107,2.13374-1.58427.5174-3.4098.7754-5.47799.7754-4.07223,0-7.17452-1.05013-9.30757-3.1518-2.13304-2.09887-3.39376-5.38037-3.78146-9.8403h28.60257c2.45589,0,3.68454-1.38902,3.68454-4.16986,0-4.65378-.87302-8.69255-2.61836-12.11908-1.74534-3.42514-4.20263-6.07488-7.36837-7.95062-3.16784-1.87434-6.88445-2.81152-11.15053-2.81152-4.45993,0-8.45198,1.0334-11.97404,3.10159-3.52416,2.06959-6.25409,4.97873-8.19328,8.72602-1.93919,3.75008-2.90844,8.04824-2.90844,12.89587,0,7.62847,2.22997,13.6392,6.6899,18.03498,4.45993,4.39578,10.50344,6.59228,18.13121,6.59228,2.52074,0,5.17048-.37236,7.95062-1.11429,2.77874-.74332,5.26741-1.72931,7.466-2.95795,2.39035-1.35695,3.58691-3.03744,3.58691-5.04148,0-1.4211-.33889-2.55212-1.01806-3.39306-.67847-.83955-1.56753-1.26072-2.66578-1.26072Zm-65.93185,13.47742c1.87365,0,3.37633-.56621,4.50805-1.69723,1.13032-1.12963,1.69723-2.63301,1.69723-4.50874v-52.3575h17.64588c3.87838,0,5.81758-1.71187,5.81758-5.13841,0-3.42514-1.93919-5.1391-5.81758-5.1391H5.81758c-3.87838,0-5.81758,1.71396-5.81758,5.1391,0,3.42653,1.93919,5.13841,5.81758,5.13841h17.64658v52.3575c0,1.87574.56481,3.37912,1.69653,4.50874,1.13032,1.13102,2.66648,1.69723,4.60567,1.69723Z" style="fill: #304278;"/>
    <path d="m471.21192,241.27398c-2.13304,0-3.9272-.66244-5.38107-1.98731-1.45457-1.32487-2.18185-3.02071-2.18185-5.09029,0-1.68049.5167-3.00536,1.55149-3.97601,1.0334-.96925,2.74667-1.64842,5.13841-2.03612,2.39104-.3877,5.75273-.58155,10.08366-.58155h1.74534v2.03612c0,3.42653-1.01806,6.22271-3.05418,8.38713-2.03612,2.16582-4.67052,3.24803-7.90181,3.24803Zm3.00536-40.62472c-3.03884,0-6.12509.35562-9.25945,1.06548-3.13576.71264-5.83431,1.68189-8.09566,2.90914-1.29419.71264-2.21532,1.4713-2.7634,2.27878-.55017.80887-.82421,1.76138-.82421,2.86033,0,1.35695.37096,2.45729,1.11498,3.29684.74262.83955,1.69653,1.25932,2.86033,1.25932.7754,0,2.00265-.41977,3.68454-1.25932,2.64974-1.0334,4.94456-1.82553,6.88375-2.3764,1.93919-.54808,3.84491-.82421,5.72065-.82421,3.03744,0,5.23533.72798,6.59298,2.18255,1.35764,1.45317,2.03612,3.76542,2.03612,6.93256v2.22997h-2.42382c-7.04622,0-12.57302.45185-16.57971,1.35695-4.00878.90649-6.90118,2.35966-8.6779,4.36371-1.77881,2.00404-2.66648,4.75001-2.66648,8.2407,0,2.77944.74262,5.30088,2.22997,7.56292,1.48664,2.26344,3.52276,4.04016,6.10835,5.33295,2.58489,1.2914,5.46195,1.9385,8.62979,1.9385,3.10229,0,5.83222-.71125,8.19258-2.13234,2.35897-1.4211,4.08758-3.39446,5.18722-5.9145v2.13234c0,1.68189.53343,3.03884,1.59961,4.07223,1.06687,1.03479,2.43916,1.55219,4.12105,1.55219,1.8088,0,3.23129-.50066,4.26608-1.50338,1.0334-1.00132,1.55149-2.37501,1.55149-4.12105v-23.65801c0-6.65643-1.59961-11.61842-4.79952-14.88318-3.19991-3.26197-8.09636-4.89505-14.68933-4.89505Zm-46.8307,49.35074c2.77874,0,5.49333-.37236,8.14447-1.11429,2.64974-.74332,4.97733-1.76138,6.98137-3.05418,1.09825-.6457,1.89038-1.37368,2.3757-2.18255.48462-.80747.72659-1.75999.72659-2.86033,0-1.35695-.35562-2.48657-1.06617-3.39306-.71194-.9037-1.58496-1.35695-2.61767-1.35695-.71194,0-1.42249.14504-2.13304.43651-.71264.29008-1.55149.72659-2.52144,1.30814-1.5508.84094-2.95725,1.50338-4.21727,1.98731-1.26072.48532-2.69995.72798-4.3149.72798-4.00878,0-7.09433-1.30953-9.25945-3.9272-2.16651-2.61767-3.24803-6.35101-3.24803-11.19864,0-4.91178,1.08151-8.67721,3.24803-11.29487,2.16512-2.61906,5.25067-3.9272,9.25945-3.9272,1.68049,0,3.16644.24266,4.45993.72659,1.29279.48532,2.64974,1.14915,4.07223,1.9887.7761.45185,1.55149.83955,2.32689,1.1631.7761.32355,1.51802.48393,2.23066.48393,1.09825,0,1.98731-.43512,2.66578-1.30814.67917-.87302,1.01806-2.01938,1.01806-3.44187,0-2.06819-1.0341-3.78216-3.10229-5.1391-1.93919-1.22725-4.18589-2.1965-6.73871-2.90914-2.55421-.70985-5.09029-1.06548-7.61103-1.06548-4.78418,0-9.01749,1.0334-12.70133,3.10159-3.68454,2.06959-6.54486,4.99407-8.58098,8.77483-2.03612,3.78216-3.05418,8.12913-3.05418,13.04091,0,4.91318.96925,9.21134,2.90844,12.89587,1.93919,3.68454,4.70259,6.52952,8.2902,8.53217,3.58761,2.00404,7.74003,3.00536,12.45867,3.00536Zm-39.65548-57.78668c2.1965,0,3.94184-.59689,5.23603-1.79346,1.2921-1.19587,1.93919-2.7634,1.93919-4.70259s-.66383-3.49069-1.988-4.65448c-1.32557-1.1631-3.05418-1.74465-5.18722-1.74465-2.19789,0-3.94323.58155-5.23603,1.74465-1.29349,1.16379-1.9385,2.71529-1.9385,4.65448s.645,3.50672,1.9385,4.70259c1.29279,1.19657,3.03814,1.79346,5.23603,1.79346Zm0,57.59283c1.74534,0,3.19991-.50066,4.36301-1.50199,1.16379-1.00272,1.74534-2.43916,1.74534-4.3149v-37.4269c0-1.87295-.58155-3.29544-1.74534-4.26608-1.1631-.96925-2.61767-1.45317-4.36301-1.45317s-3.18457.48393-4.3149,1.45317c-1.13172.97064-1.69653,2.39314-1.69653,4.26608v37.4269c0,1.87574.56481,3.31218,1.69653,4.3149,1.13032,1.00132,2.56955,1.50199,4.3149,1.50199Zm-42.66154-9.21134c-3.81493,0-6.78752-1.35695-8.92056-4.07223-2.13304-2.71389-3.19921-6.52813-3.19921-11.43991,0-4.84903,1.06617-8.56424,3.19921-11.15123,2.13304-2.5842,5.1391-3.87838,9.01749-3.87838,3.81284,0,6.77009,1.30953,8.87175,3.9272,2.09957,2.61767,3.1511,6.38448,3.1511,11.29627,0,4.91318-1.05153,8.69394-3.1511,11.34368-2.10166,2.65114-5.09029,3.97461-8.96868,3.97461Zm17.93736-60.2105c-1.81089,0-3.24872.50136-4.3149,1.50268-1.06687,1.00342-1.59961,2.31225-1.59961,3.9272v22.97954c-1.42249-2.58559-3.45861-4.58963-6.10835-6.01212-2.65114-1.4211-5.68927-2.13234-9.11441-2.13234-4.13708,0-7.78954,1.00272-10.95598,3.00536-3.16784,2.00404-5.64046,4.84763-7.41718,8.53217-1.77881,3.68454-2.66648,7.98409-2.66648,12.89587s.88766,9.25876,2.66648,13.04091c1.77672,3.78076,4.26608,6.70664,7.4653,8.77343,3.19991,2.06959,6.83564,3.10299,10.90787,3.10299,3.42514,0,6.47932-.74332,9.16253-2.22997,2.68182-1.48664,4.73467-3.55344,6.15716-6.20458v2.42382c0,1.74465.54808,3.13506,1.64842,4.16846,1.09825,1.03479,2.55212,1.55219,4.36301,1.55219,1.8088,0,3.26337-.5174,4.36301-1.55219,1.09825-1.0334,1.64842-2.42382,1.64842-4.16846v-57.98123c0-1.68049-.58225-3.03744-1.74534-4.07223-1.16379-1.0334-2.65114-1.55149-4.45993-1.55149Zm-70.29486,28.79711c3.23199,0,5.75273,1.01806,7.56292,3.05418,1.8088,2.03612,2.77874,5.02614,2.90844,8.96868h-21.91197c.3877-3.87838,1.56614-6.85167,3.5388-8.92126,1.97127-2.0668,4.60567-3.10159,7.90181-3.10159Zm16.77426,27.05107c-.90649,0-2.32759.5174-4.26678,1.5508-2.00404.90649-3.7975,1.61634-5.38107,2.13374-1.58427.5174-3.4098.7754-5.47799.7754-4.07223,0-7.17452-1.05013-9.30757-3.1518-2.13304-2.09887-3.39376-5.38037-3.78146-9.8403h28.60257c2.45589,0,3.68454-1.38902,3.68454-4.16986,0-4.65378-.87302-8.69255-2.61836-12.11908-1.74534-3.42514-4.20263-6.07488-7.36837-7.95062-3.16784-1.87434-6.88445-2.81152-11.15053-2.81152-4.45993,0-8.45198,1.0334-11.97404,3.10159-3.52416,2.06959-6.25409,4.97873-8.19328,8.72602-1.93919,3.75008-2.90844,8.04824-2.90844,12.89587,0,7.62847,2.22997,13.6392,6.6899,18.03498,4.45993,4.39578,10.50344,6.59228,18.13121,6.59228,2.52074,0,5.17048-.37236,7.95062-1.11429,2.77874-.74332,5.26741-1.72931,7.466-2.95795,2.39035-1.35695,3.58691-3.03744,3.58691-5.04148,0-1.4211-.33889-2.55212-1.01806-3.39306-.67847-.83955-1.56753-1.26072-2.66578-1.26072Zm-65.83492-35.58324c-3.49069,0-6.62645.80887-9.40519,2.42382-2.78014,1.61634-4.8811,3.78076-6.3022,6.49605-2.39174-5.94658-7.14315-8.91987-14.25282-8.91987-3.23268,0-6.09301.67778-8.58098,2.03612-2.48867,1.35695-4.47667,3.32891-5.96262,5.91311v-2.32619c0-1.74604-.53343-3.08625-1.59961-4.02342-1.06687-.93717-2.44055-1.40576-4.12105-1.40576-1.74534,0-3.19921.48393-4.36301,1.45317-1.16379.97064-1.74534,2.36106-1.74534,4.16986v37.52313c0,1.87574.56481,3.31218,1.69653,4.3149,1.13032,1.00132,2.56955,1.50199,4.3149,1.50199s3.19991-.50066,4.36301-1.50199c1.16379-1.00272,1.74534-2.43916,1.74534-4.3149v-21.62189c0-3.74869.92113-6.70524,2.7634-8.87245,1.84227-2.16442,4.34627-3.24803,7.51411-3.24803,2.58489,0,4.50874.76145,5.76877,2.27878,1.26072,1.52011,1.89108,4.05689,1.89108,7.61173v23.85186c0,1.87574.58155,3.31218,1.74534,4.3149,1.1631,1.00132,2.61767,1.50199,4.36301,1.50199s3.18318-.50066,4.3149-1.50199c1.12963-1.00272,1.69653-2.43916,1.69653-4.3149v-21.62189c0-3.74869.93647-6.70524,2.81152-8.87245,1.87434-2.16442,4.39508-3.24803,7.56292-3.24803,2.5842,0,4.50874.76145,5.76877,2.27878,1.26072,1.52011,1.89108,4.05689,1.89108,7.61173v23.85186c0,1.87574.56481,3.31218,1.69653,4.3149,1.13032,1.00132,2.56955,1.50199,4.3149,1.50199,1.8088,0,3.2794-.50066,4.41112-1.50199,1.13032-1.00272,1.69723-2.43916,1.69723-4.3149v-23.85186c0-6.85028-1.37438-11.81227-4.12105-14.88318-2.74806-3.06952-6.70664-4.60497-11.87712-4.60497Z" style="fill: #74c8b4;"/>
  </g>
  <g>
    <path d="m309.48645,31.4503l-.21458-2.57668-2.5837-.09094c-3.52977-.12451-6.902-.4512-10.11495-.94113-3.21295-.48993-6.26705-1.1432-9.16098-1.92099-1.929-.51845-3.78691-1.0923-5.57329-1.71003-1.78595-.61762-3.5008-1.27923-5.14326-1.9731-.82145-.34699-1.6249-.70198-2.40993-1.06367-6.28196-2.89339-11.40855-6.21263-15.35562-9.22208-.49322-.37617-.96801-.74751-1.42481-1.1126-4.10767-3.28557-6.71902-6.06267-7.7976-7.28409-.24003-.2714-.40414-.46601-.49234-.57231-.04388-.0531-.06889-.08425-.07504-.09182l-2.28224-2.89086-.00483.00603h0l-2.28443,2.8811c-.19483.2454-19.89947,24.56695-57.55045,25.89555l-2.58414.09105-.21458,2.57657c-.07328.88134-1.72232,21.87235,4.91947,46.80559,8.85601,33.24656,28.4097,57.32413,56.54733,69.62982l1.16679.51033,1.16635-.51033c21.10356-9.22932,37.37804-25.08025,47.93311-46.45477,3.51792-7.1248,6.40044-14.86339,8.61466-23.17506.62223-2.33753,1.17249-4.64028,1.65737-6.8952.80828-3.75805,1.43709-7.38304,1.92329-10.81298.09742-.68597.18869-1.36425.27513-2.03409.51735-4.01947.84032-7.74034,1.03515-11.0563.0645-1.10536.11497-2.16562.15358-3.17696.03862-1.01134.06538-1.97375.0825-2.88329.11146-5.91183-.17816-9.58871-.20799-9.94677Z" style="fill: #74c8b4;"/>
    <path d="m274.38904,62.9021h-16.23085v-16.23076c0-2.13191-.66069-4.10792-1.78411-5.7408.00056-.00037.00121-.00084.00177-.00121-.02029-.02941-.04523-.05519-.0658-.08441-.18958-.26952-.39182-.52881-.60624-.77814-.06878-.08004-.14146-.15607-.21266-.23397-.18344-.20038-.37367-.3934-.57246-.57851-.08348-.0778-.16678-.15477-.25287-.22978-.21322-.18567-.43491-.36045-.66329-.52807-.07418-.05454-.14519-.11271-.22094-.1652-.30889-.21396-.62784-.41406-.96027-.59331-.02783-.01498-.05761-.02643-.08562-.04123-.3008-.15859-.6108-.30098-.92854-.42932-.10889-.04402-.22048-.08097-.33123-.12127-.24672-.08972-.4967-.17106-.7518-.24179-.12741-.03537-.2551-.0684-.38456-.09884-.26012-.06105-.52416-.10954-.79154-.15021-.1195-.01815-.23704-.04048-.35785-.05454-.38651-.04467-.77777-.07362-1.17619-.07362-5.60259,0-10.14431,4.54162-10.14431,10.14421v16.23076h-16.23076c-5.60259,0-10.14421,4.54171-10.14421,10.14431,0,.40038.02932.79331.07445,1.18159.01415.12173.03658.2403.055.36082.04104.26831.09.53319.1517.79415.03081.1303.06394.2591.09968.38744.07157.25715.1544.50899.24533.75757.04039.11029.07687.22197.12099.33039.13932.34333.29261.6793.4672,1.00262.0027.00503.00456.01042.00735.01545.17888.32974.3799.64524.59303.95171.06366.09149.1329.17767.19944.26683.15859.21275.32332.41983.49773.61927.08274.09456.16687.18707.25305.27846.18074.19191.36939.37506.56436.55236.0833.07576.1638.15384.24961.22681.27474.23379.55934.45603.85818.65985.008.0054.01489.01219.02289.01759.00009-.00009.00009-.00019.00019-.00028,1.62152,1.09904,3.57753,1.74158,5.68403,1.74158h16.23076v16.23085c0,5.60259,4.54171,10.14431,10.14431,10.14431s10.14421-4.54171,10.14421-10.14431v-16.23085h16.23085c5.60213,0,10.14421-4.54162,10.14421-10.14421s-4.54209-10.14431-10.14421-10.14431Z" style="fill: #fff;"/>
  </g>
</svg>