<?xml version="1.0" encoding="UTF-8"?>
<svg id="Layer_1" data-name="Layer 1" xmlns="http://www.w3.org/2000/svg" width="300" height="300" xmlns:xlink="http://www.w3.org/1999/xlink" viewBox="0 0 300 300">
  <defs>
    <filter id="drop-shadow-1" filterUnits="userSpaceOnUse">
      <feOffset dx="2.57085" dy="3.85627"/>
      <feGaussianBlur result="blur" stdDeviation="5.78441"/>
      <feFlood flood-color="#231f20" flood-opacity=".6"/>
      <feComposite in2="blur" operator="in"/>
      <feComposite in="SourceGraphic"/>
    </filter>
    <radialGradient id="New_Gradient_Swatch_1" data-name="New Gradient Swatch 1" cx="150" cy="150" fx="150" fy="150" r="150" gradientUnits="userSpaceOnUse">
      <stop offset="0" stop-color="#aa2b32"/>
      <stop offset=".33931" stop-color="#bb282e"/>
      <stop offset=".37079" stop-color="#bd282e"/>
      <stop offset=".68539" stop-color="#c73d2d"/>
      <stop offset="1" stop-color="#8f2b2f"/>
    </radialGradient>
    <linearGradient id="linear-gradient" x1="139.49752" y1="184.69974" x2="139.49752" y2="15.6979" gradientTransform="translate(8.6182 52.24639) rotate(.21646)" gradientUnits="userSpaceOnUse">
      <stop offset=".30194" stop-color="#fff"/>
      <stop offset=".32147" stop-color="#f9f9f9"/>
      <stop offset=".79375" stop-color="#6f6f6f"/>
      <stop offset="1" stop-color="#393839"/>
    </linearGradient>
    <filter id="drop-shadow-2" filterUnits="userSpaceOnUse">
      <feOffset dx="10.49381" dy="10.49381"/>
      <feGaussianBlur result="blur-2" stdDeviation="10.49381"/>
      <feFlood flood-color="#010101" flood-opacity=".29"/>
      <feComposite in2="blur-2" operator="in"/>
      <feComposite in="SourceGraphic"/>
    </filter>
    <radialGradient id="New_Gradient_Swatch_1-2" data-name="New Gradient Swatch 1" cx="175.99933" cy="258.71313" fx="175.99933" fy="258.71313" r="69.9859" gradientTransform="translate(-22.81036 -133.0195) rotate(4.13056)" xlink:href="#New_Gradient_Swatch_1"/>
    <radialGradient id="New_Gradient_Swatch_1-3" data-name="New Gradient Swatch 1" cx="175.99933" cy="258.71313" fx="175.99933" fy="258.71313" r="69.9859" gradientTransform="translate(-22.81036 -133.0195) rotate(4.13056)" xlink:href="#New_Gradient_Swatch_1"/>
    <radialGradient id="New_Gradient_Swatch_1-4" data-name="New Gradient Swatch 1" cx="175.99933" cy="258.71313" fx="175.99933" fy="258.71313" r="69.9859" gradientTransform="translate(-22.81036 -133.0195) rotate(4.13056)" xlink:href="#New_Gradient_Swatch_1"/>
    <radialGradient id="New_Gradient_Swatch_1-5" data-name="New Gradient Swatch 1" cx="175.99933" cy="258.71313" fx="175.99933" fy="258.71313" r="69.9859" gradientTransform="translate(-22.81036 -133.0195) rotate(4.13056)" xlink:href="#New_Gradient_Swatch_1"/>
    <radialGradient id="New_Gradient_Swatch_1-6" data-name="New Gradient Swatch 1" cx="175.99933" cy="258.71313" fx="175.99933" fy="258.71313" r="69.9859" gradientTransform="translate(-22.81036 -133.0195) rotate(4.13056)" xlink:href="#New_Gradient_Swatch_1"/>
  </defs>
  <g style="filter: url(#drop-shadow-1);">
    <circle cx="150" cy="150" r="149.99906" style="fill: url(#New_Gradient_Swatch_1);"/>
    <circle cx="147.76173" cy="146.46886" r="91.65593" style="fill: #fff;"/>
    <path d="m50.7003,113.08669c1.35503.82469,2.1832,1.64739,2.47866,2.46808.29741.82069.15648,2.48467-.42472,4.98607l-.24796,1.07036c-.54948,2.3698-1.11904,3.85751-1.71259,4.46214-.5916.60561-1.71113.97605-3.36055,1.11519l-22.74868,1.99421c-1.34482.08858-2.23127.22964-2.66131.4251-.432.19838-.6986.52033-.80177.96875-.08131.34606-.1261.83861-.13437,1.47667-.00825.63514-.03917,1.07017-.09272,1.30023-.18448.79546-.64726,1.3918-1.39221,1.78511-.74496.39429-1.59217.48085-2.54554.25674-1.15613-.27073-1.96786-.79871-2.43709-1.59078-.46923-.79305-.56696-1.78373-.28926-2.97887.04362-.18326.30037-.99699.77416-2.44115.47573-1.44221.86341-2.82328,1.16691-4.1315.20431-.87832.40384-2.04155.60055-3.49164.1967-1.44814.35655-2.43688.47954-2.96913.3154-1.35793.87315-2.30321,1.67131-2.83291.80011-.5297,1.83281-.64483,3.09813-.3493.75257.17456,1.34265.48706,1.77415.9375.43149.45239.6151.92141.55469,1.41586-.00288.24488-.0373.57649-.09939.9997-.16383,1.01019.03696,1.58074.6043,1.71363.05069.0119.14432.02006.28285.02644.14047.00638.31609.00802.52684.00687l17.61049-.89159-15.40264-8.63442c-.18892-.09633-.34279-.17301-.46161-.22713-.12078-.05314-.21237-.08666-.2806-.10448-.56539-.13288-.99824.29088-1.2966,1.26934-.12643.40833-.24271.71328-.343.91682-.15984.47065-.5358.81462-1.12204,1.03486-.5882.22121-1.25564.24308-2.00626.06852-1.26727-.29554-2.14325-.85791-2.62796-1.6881-.48275-.83115-.56838-1.92424-.25297-3.28607.12695-.54493.41941-1.51462.87931-2.89933.46186-1.3886.79198-2.51134.99233-3.37405.3035-1.30919.56055-2.71808.76918-4.22374.21058-1.50663.33671-2.35109.37838-2.53436.27971-1.20976.80395-2.06248,1.57074-2.55523.76875-.49372,1.72924-.60424,2.88343-.33547.95337.22411,1.67953.67273,2.17457,1.34978.497.67412.65031,1.41622.46186,2.22825-.05357.23396-.21509.6324-.48456,1.19826-.27142.56487-.44881,1.03253-.53214,1.39516-.10115.43282-.00121.83713.29593,1.21096.29713.37774,1.02886.90151,2.19908,1.57623l19.53115,11.88244Z" style="fill: #fff;"/>
    <path d="m35.60058,77.47391c-.9903-1.29554-1.47987-2.38625-1.46675-3.277s.85079-2.58234,2.51105-5.07283c1.67794-2.52067,2.90687-3.95711,3.68094-4.31128.77407-.35125,1.9818-.30863,3.62318.13077l22.57169,6.11498c1.34887.38854,2.26146.5598,2.73779.50696.47827-.04893.84399-.2661,1.09716-.64858.21783-.32603.44593-.78764.68041-1.38582.23643-.60013.42136-.99848.55286-1.198.471-.70754,1.12628-1.12558,1.96389-1.25023.8376-.12465,1.67199.08632,2.50314.63779,1.02967.68784,1.63345,1.50579,1.8172,2.45485.18375.94906-.06979,1.94329-.75861,2.97491-.17073.25498-.7335.97779-1.69028,2.17133-.95871,1.19061-1.77073,2.29006-2.43994,3.29443-.68883,1.03357-1.38584,2.16468-2.08907,3.39333-.70517,1.22669-1.10782,1.91888-1.21182,2.07362-.91453,1.3742-1.87975,2.2233-2.89569,2.54827s-2.06891.1239-3.16088-.6032c-.80389-.53576-1.30883-1.17283-1.51094-1.91121-.20405-.73936-.06863-1.4628.40237-2.16937.1413-.21119.36817-.3479.67866-.40625l.08588-.00651c.26298-.39611.37562-.77034.33597-1.12271-.03769-.35334-.21032-.63011-.5159-.83713-.11679-.07654-.22778-.13941-.33102-.18761-.10519-.04821-.2182-.09449-.33903-.13397l-2.71844-.98205c-.1019.11377-.23912.27912-.40969.49215-1.34715,1.73747-2.28271,2.99745-2.8008,3.77506-.2355.35426-.69315,1.14478-1.37294,2.36669-.39673.6766-.713,1.23349-.94881,1.66971l1.76483,2.36976c.08159.09592.15934.1772.22934.24479.07.06661.17312.14603.30353.23336.3348.22177.67214.28451,1.01401.18336.33991-.09824.63743-.34006.8906-.72254l.00218-.06146c-.07679-.33592-.04258-.60899.09872-.82213.46315-.69489,1.0715-1.08676,1.82702-1.1766.75356-.08789,1.53326.13361,2.33715.67034,1.10754.73594,1.7052,1.62607,1.79882,2.6704.09362,1.04433-.31682,2.25165-1.23134,3.6239-.10402.15767-.59234.80172-1.46304,1.939-.87265,1.13727-1.65144,2.22221-2.34027,3.25481-.67116,1.00534-1.36832,2.17548-2.09537,3.51234-.72704,1.33393-1.17889,2.13619-1.35943,2.40674-.69669,1.0472-1.51859,1.66365-2.45986,1.85426-.94128.1906-1.92773-.05704-2.95741-.74293-.8292-.55146-1.34957-1.23641-1.56114-2.0519-.20962-.81548-.07403-1.58186.40679-2.30595.11187-.16935.40184-.47852.8621-.92754.46221-.44707.81108-.85066,1.04658-1.20491.2453-.36593.30149-.7755.16463-1.2219-.13296-.44639-.63731-1.23957-1.51115-2.37173l-14.34888-18.45456Zm17.68082-.91474l-10.31247-3.22163,6.95858,8.25517,3.35389-5.03355Z" style="fill: #fff;"/>
    <path d="m97.43089,22.85088c-.35318-1.03653-.42014-1.90709-.20087-2.61558.22122-.70653.74436-1.26947,1.57526-1.6849.84459-.42513,1.60802-.54323,2.29028-.3543.68032.18697,1.21708.66708,1.6064,1.43642.14527.2874.418.9236.82018,1.9047.40217.98305.76981,1.80694,1.10684,2.47168.27504.54449.67632,1.24655,1.20774,2.10715.52947.8606.88816,1.47273,1.07217,1.83443.55782,1.10365.68492,2.06908.38711,2.90313-.29975.83307-1.03223,1.53963-2.19551,2.12649-1.08897.54519-2.03017.71531-2.8275.51033-.79538-.20595-1.56766-.84208-2.31296-1.90644-1.29087-1.79623-2.43235-2.84647-3.42638-3.15366-.99404-.30622-2.18316-.10972-3.56929.58363-2.14472,1.07978-3.35116,2.76022-3.61541,5.04231-.26816,2.285.41996,5.05366,2.06246,8.29912,1.59019,3.14379,3.39476,5.3254,5.41566,6.54678,2.01895,1.21942,4.0089,1.33719,5.97178.35137,1.50735-.75436,2.53529-1.67542,3.0838-2.75538.55046-1.08093.59005-2.26135.11485-3.54031-.15244-.45329-.43104-1.08854-.83772-1.90964-.40475-.8172-.59962-1.40432-.58465-1.75063-.00133-.68201.19224-1.29986.57876-1.85551.38846-.55272.93852-1.01019,1.65407-1.36848,1.36856-.68951,2.62954-.79695,3.78492-.32719,1.15536.47464,2.12914,1.49498,2.92327,3.06492,1.58824,3.14379,1.64687,6.21935.17005,9.22277-1.47488,3.00733-4.3277,5.57137-8.55847,7.69603-4.37936,2.20118-8.59152,2.49748-12.62865.88797-4.03713-1.61049-7.305-4.88453-9.80359-9.82506-2.53733-5.01678-3.236-9.64219-2.09796-13.88014,1.13805-4.24088,3.95051-7.48415,8.43935-9.74053,1.67354-.84057,3.209-1.28943,4.60053-1.34467,1.39348-.05523,2.65863.28519,3.79348,1.02318Z" style="fill: #fff;"/>
    <path d="m132.96435,36.49146c.15579,1.11774.57648,1.84621,1.26206,2.19127.68363.34407,1.90498.39649,3.66016.15725,2.5498-.34942,4.20071-.88273,4.95274-1.59994.75204-.71819,1.00834-1.92999.76892-3.63833-.04368-.31824-.15504-.79967-.33019-1.44135-.1771-.64169-.28649-1.12897-.334-1.46576-.11783-.83563.13483-1.59961.75798-2.29096.62119-.69039,1.47552-1.1106,2.56495-1.26064,1.35884-.18317,2.46631.0542,3.32045.71894.85609.66475,1.37717,1.67947,1.5691,3.04322.07413.52227.15085,1.39287.23602,2.60888.08322,1.21504.17139,2.153.26258,2.809.07601.53984.21586,1.2292.41758,2.07002.20367.83985.32832,1.4189.37199,1.73909.16532,1.17827-.01181,2.09181-.53136,2.73868-.5215.64588-1.42068,1.05617-2.70143,1.23086-.25381.03417-.898.10003-1.93259.19564-4.63407.40691-9.08503.90038-13.35095,1.48235-4.4514.60762-8.49912,1.28408-12.13925,2.02453-.4355.09104-.6874.13888-.75379.14838-1.23.16902-2.20501-.00833-2.92115-.52522-.71811-.51494-1.15784-1.36935-1.32506-2.55836-.14628-1.05136.03073-1.93563.533-2.65671.50031-.71816,1.23367-1.14274,2.19619-1.27472.35338-.04842.8744-.05133,1.56112-.00776.68477.04259,1.18821.04352,1.5084-.00016.55838-.07594.91602-.21997,1.07683-.43109.15885-.20917.17843-.74279.05875-1.60575l-2.4833-17.76676c-.12157-.8776-.29327-1.40023-.51509-1.56694-.22182-.16768-.60217-.21107-1.14297-.13994-.30262.04276-.78512.17753-1.44162.40239-.65456.22681-1.17805.36533-1.56657.4185-.94495.12912-1.75013-.0632-2.41751-.57698-.66542-.51475-1.06842-1.2773-1.20903-2.2818-.16339-1.17046.03141-2.11613.58634-2.83018.553-.71894,1.42106-1.15667,2.60224-1.31807.11909-.01516.45287-.04122.99742-.07233,2.71683-.14194,5.39113-.39039,8.02682-.74827,2.1769-.30009,4.485-.72262,6.91849-1.27737.66986-.14382,1.09558-.22905,1.28106-.25567,1.21632-.1642,2.19321.03073,2.93458.58576.73941.55698,1.19466,1.43681,1.36377,2.64339.14249,1.02208-.02259,1.84785-.49524,2.4744-.46874.62657-1.21171,1.01013-2.22499,1.1507-.3729.04933-.91344.05411-1.62359.01533-.7121-.03781-1.22727-.03683-1.54745.00684-.54081.07406-.89457.22395-1.06129.45163-.16673.22865-.1883.77398-.06667,1.63596l2.32557,16.64803Z" style="fill: #fff;"/>
    <path d="m175.31615,15.45091c.90468-1.35083,1.78195-2.16123,2.62987-2.43219.84792-.27291,2.72418-.02288,5.62293.75203,2.93578.78578,4.6952,1.48809,5.28023,2.10595.58697.6208.93774,1.7783,1.05428,3.47057l1.52772,23.29525c.07081,1.40037.20589,2.31802.40915,2.75101.20325.43495.52612.71326.97254.83203.37818.10095.88919.16727,1.53302.19898.64577.03366,1.08465.0802,1.31273.14155.82655.21875,1.43353.70693,1.82487,1.45773.39134.7508.46225,1.60869.20689,2.56975-.31672,1.19206-.89553,2.02701-1.73641,2.50191-.84089.47783-1.86369.55397-3.06646.23136-.29632-.07625-1.16548-.38004-2.60555-.90552-1.44008-.52255-2.74591-.94215-3.91554-1.25391-1.20277-.32262-2.50125-.62023-3.89349-.89477-1.39419-.27358-2.17997-.43558-2.36128-.48213-1.5985-.42851-2.71811-1.06791-3.35492-1.92598-.63876-.85613-.78892-1.91531-.4524-3.18145.24549-.93085.68516-1.61119,1.32097-2.03906.63385-.4269,1.3621-.5305,2.1867-.31079.24757.06631.44792.23683.60494.51061l.03287.07915c.46006.12272.85233.10957,1.17486-.03849.32254-.15001.53033-.40095.62338-.75477.03759-.13548.05953-.26223.07362-.37633.01213-.11216.01844-.23312.01697-.36094l.04992-2.88295c-.14222-.06103-.34487-.13887-.6021-.22961-2.08523-.7211-3.58206-1.20191-4.48852-1.44535-.41327-.11084-1.30826-.29082-2.68888-.5419-.77018-.15999-1.39806-.28237-1.88753-.36716l-1.67563,2.42604c-.06481.10903-.11787.20835-.15723.29601-.04327.0896-.08275.20946-.12234.35956-.10294.38891-.05348.72766.15421,1.01822.2038.28957.52891.49277.97531.61348l.05667-.02028c.29533-.17841.56483-.23398.8124-.16865.809.21673,1.37709.66866,1.70624,1.35191.3311.68423.37292,1.4942.12743,2.42602-.34047,1.28076-.99153,2.13007-1.9493,2.5538-.95776.42178-2.23783.41694-3.83633-.01059-.1813-.04752-.95307-.30313-2.31143-.76293-1.3603-.46176-2.64282-.85297-3.84559-1.17559-1.16963-.31273-2.50524-.5978-4.0068-.8591-1.50351-.26228-2.41024-.4345-2.72409-.51765-1.21837-.32463-2.07284-.90253-2.55754-1.73369-.4847-.83018-.57065-1.84131-.25587-3.03436.25536-.96106.73613-1.67344,1.4384-2.1313.70423-.45981,1.4774-.57592,2.31759-.35127.19884.05344.58455.22661,1.16105.51955.57455.29195,1.06748.49382,1.48075.60369.42886.11577.83114.03729,1.21462-.2325.37959-.27078.96384-.99838,1.75668-2.18669l12.83541-19.45828Zm6.60379,16.42613l-.29101-10.77944-5.56693,9.21671,5.85793,1.56273Z" style="fill: #fff;"/>
    <path d="m213.81908,36.45641l.15309-.23358c.39058-.59759.55611-1.02627.4986-1.29772-.05949-.26561-.30433-.53875-.73061-.82038-.25694-.16879-.71857-.39104-1.38489-.66869-.66633-.27278-1.15716-.51563-1.47055-.7217-.79807-.525-1.27946-1.19907-1.44221-2.02413-.16276-.82311.03358-1.65755.58902-2.50625.63983-.97521,1.41083-1.54795,2.31108-1.72603.90024-.17612,1.8516.06456,2.85017.72009.10122.06575.78998.6001,2.07214,1.60404,1.28021,1.00101,2.56268,1.92299,3.84738,2.7679,2.38255,1.56424,4.93302,3.10471,7.65334,4.62046.62504.35653,1.00862.57849,1.15071.67269,1.02776.67613,1.63957,1.43752,1.83931,2.28419.19779.84764-.02618,1.76491-.67582,2.75472-.57505.87496-1.27371,1.4109-2.09793,1.6078-.82227.19788-1.63926.02991-2.45291-.50394-.30172-.19628-.70239-.5422-1.20593-1.03585-.5055-.48975-.89061-.82489-1.16117-1.00446-.47301-.30913-.83548-.43733-1.09324-.38952-.25582.04977-.61825.42891-1.08341,1.1394l-10.1685,15.48563c-.31404.48178-.44229.85498-.38476,1.12351.05752.27146.31401.55732.77146.85566.25693.17074.71857.39104,1.3849.66674.66436.27765,1.1552.5166,1.4686.7217.78445.51617,1.25415,1.18434,1.4091,2.00937.153.82405-.05116,1.66139-.61052,2.51397-.65356.99565-1.4305,1.59081-2.33276,1.78351-.90029.18978-1.85168-.04212-2.85025-.69765-.08564-.05691-.77247-.58833-2.06046-1.59619-1.28799-1.00786-2.56851-1.92887-3.83765-2.76006-2.38255-1.56619-4.94467-3.11842-7.68831-4.6606-.6426-.3566-1.03592-.58347-1.17802-.67669-1.01414-.66729-1.61815-1.42378-1.81398-2.27433-.19777-.85349.03208-1.77757.68564-2.77127.57899-.88275,1.29133-1.42547,2.14095-1.63008.84962-.20656,1.68223-.04145,2.49588.49142.28419.1884.67124.52355,1.15921,1.0064.48992.48189.87893.81704,1.16311,1.00544.45744.29931.81797.42361,1.08353.3768s.62994-.42302,1.09312-1.12668l9.90355-15.08562Z" style="fill: #fff;"/>
    <path d="m236.64389,89.02623c-1.70185.64137-2.90777.87054-3.61971.68556-.71195-.18595-1.56383-.97171-2.5537-2.36023s-1.46157-2.43618-1.41312-3.13912c.04844-.70489.67131-1.77292,1.86855-3.20993l16.76893-19.92806-.23904-.33159c-.83457.73815-1.68499,1.44911-2.54734,2.13579-.8643.68572-1.74055,1.3452-2.63071,1.97456l-11.76001,8.34721c-.49261.34681-.78452.66063-.87577.93463-.09128.27205-.06444.66112.08244,1.16427.5947.83291.82531,1.53729.69376,2.11119-.1296.57388-.58713,1.13796-1.37253,1.69712-1.06275.75381-2.05343,1.04841-2.97786.88872-.92444-.16164-1.76701-.77674-2.52772-1.84626-.1205-.16676-.52264-.84915-1.21031-2.04518-.68571-1.19604-1.37037-2.27306-2.054-3.23203-.91085-1.27895-1.92077-2.50532-3.03175-3.68592-.2383-.24769-.38215-.40644-.43349-.47526-.54336-.76408-.70645-1.55688-.48928-2.38131.21715-.82541.79797-1.57206,1.74242-2.2419.83197-.58982,1.65315-.85365,2.46161-.78856.80846.06509,1.45173.42923,1.92593,1.09537.17783.25017.37643.64359.59387,1.18222.21547.5367.40223.91461.56031,1.13763.26673.37428.53192.57294.79169.59895.2617.02404.73774-.21041,1.42814-.69946l14.65349-10.39823c.70785-.50286,1.09673-.88388,1.16279-1.13815.06798-.25819-.03236-.57343-.29911-.94869-.13038-.18034-.41586-.46761-.86427-.86371-.44643-.39319-.77337-.73474-.98084-1.0266-.46627-.65255-.59743-1.36464-.3993-2.13427.19815-.76768.7035-1.44048,1.51803-2.01648.96384-.68464,1.8589-.97938,2.68517-.88614.82239.09522,1.54276.57283,2.15721,1.43289.05929.08534.19594.31246.40995.68232,1.35891,2.30048,2.8781,4.63175,4.56148,6.99281.45444.63802,1.15284,1.50221,2.0952,2.5916.94235,1.08841,1.60122,1.89538,1.97665,2.42482.65398.91629.96336,1.70195.92615,2.35307-.03521.65599-.45389,1.4217-1.25015,2.30001l-9.88171,10.68313c-.35187.37386-.9305.92535-1.73781,1.65643-.80925.73305-1.7931,1.58276-2.95738,2.55115,1.09703-.62825,2.12623-1.20224,3.08764-1.71904.96144-.5129,1.78905-.93388,2.48479-1.25905l13.32556-5.84852c1.07113-.46703,1.93047-.60728,2.57806-.41686.64564.18946,1.30039.74962,1.96424,1.67949.36749.51487.90993,1.39604,1.63119,2.63959.72322,1.24548,1.31503,2.19257,1.78131,2.84609,1.69328,2.37755,3.41046,4.58902,5.15159,6.63831.27995.32343.44558.51809.49497.58693.61446.86103.82666,1.69047.6346,2.48541-.19012.79297-.76904,1.53278-1.73483,2.21744-.81255.57891-1.61231.83768-2.4012.77925-.78694-.05845-1.4145-.41199-1.88079-1.0665-.20747-.29186-.42387-.71244-.65117-1.2627-.22536-.55125-.40815-.92236-.54648-1.11824-.25686-.36071-.52201-.55547-.79155-.58334-.27149-.02786-.76117.20867-1.46901.7125l-14.797,10.49999c-.6361.45149-.97456.79695-1.01736,1.03344-.04278.23943.07117.54772.3379.922.16794.23562.47118.54421.90773.92382.43657.38157.74572.69693.92355.94807.47421.66712.60738,1.387.3976,2.16258-.20978.77656-.73065,1.46023-1.56456,2.05104-.9425.66982-1.83549.97819-2.67702.9251-.84149-.04821-1.52997-.45001-2.06345-1.20051-.05135-.0698-.15648-.26402-.32324-.58649-.77194-1.4597-1.60938-2.82321-2.51034-4.08664-.68167-.95898-1.47689-1.95892-2.38368-2.99788-.90874-1.03895-1.42143-1.64328-1.53999-1.81104-.77253-1.08307-1.08186-2.08436-.93192-3.0087.1519-.92338.75729-1.75904,1.82004-2.51285.78541-.55916,1.47213-.80132,2.06404-.72945.58998.07384,1.18328.52526,1.77799,1.35914.42613.3036.78653.45557,1.07538.46083.28885.00429.68151-.16894,1.17215-.51865l11.76198-8.34527c.73694-.52361,1.56539-1.06949,2.48924-1.6406.92385-.57209,1.96829-1.18816,3.13335-1.84726l-.29832-.41596-24.36987,9.26014Z" style="fill: #fff;"/>
    <path d="m250.07293,115.24972l-.15205.01227c-.97657.09014-1.74908-.1162-2.31374-.6177-.56651-.50265-.8997-1.27946-.99983-2.32751-.10788-1.13305.08548-2.04984.58006-2.75038.49449-.69956,1.22128-1.09523,2.18203-1.18391.25304-.02342.80426-.02881,1.65446-.02492.85178.00796,1.57113-.01408,2.16018-.06787.65823-.06008,1.4748-.17887,2.45158-.35523.97872-.17617,1.61735-.27826,1.92163-.30474,1.26327-.11728,2.28605.15848,3.07405.82879.78624.66819,1.24091,1.65525,1.36428,2.95829.05747.60213-.00248,1.18154-.17765,1.7355-.17757.55864-.45822,1.04592-.84278,1.47059-.50575.56818-1.43384.99994-2.78207,1.29254-.58559.12173-1.03273.22993-1.34725.32404-.77301.26103-1.39679.98086-1.87159,2.16242-.47304,1.18368-.63652,2.53638-.49284,4.06278.15522,1.61272.60665,2.84447,1.35986,3.69869s1.71779,1.22842,2.89792,1.12004c1.87008-.17236,2.98359-2.14977,3.33627-5.92872.18288-2.00155.3848-3.61916.60789-4.85459.54288-3.234,1.56134-5.72592,3.06165-7.48007,1.49661-1.75646,3.45062-2.74411,5.86054-2.968,3.08369-.28251,5.73252.65063,7.95258,2.79707,2.21794,2.1482,3.50203,5.06276,3.85228,8.74366.1767,1.86559.07329,3.58254-.31207,5.14971-.3873,1.56699-1.08605,3.09022-2.10217,4.57011.11631-.02834.27366-.07637.47047-.14816.29685-.0938.49591-.14774.59663-.15598.59108-.05459,1.1194.20638,1.59281.78266.47147.57609.749,1.31929.83656,2.22898.10364,1.09444-.12838,1.96352-.69632,2.61018-.56582.64489-1.42233,1.02355-2.56889,1.12919-.32019.02891-.91302.03924-1.7808.03468-.86574-.00534-1.58722.01845-2.16045.07079-.42109.03909-.9825.13271-1.68052.28314-.69793.14946-1.20032.24075-1.50461.26722-.82433.07593-1.55656-.20505-2.19465-.84373-.64003-.63886-1.00953-1.48863-1.10866-2.54737-.18229-1.88963.88648-3.26171,3.20084-4.12068.29487-.11457.51644-.19972.66358-.26438.86648-.33854,1.51111-.98783,1.93008-1.94922.41703-.96157.56153-2.13182.42896-3.50431-.15368-1.62924-.57926-2.88601-1.27462-3.77207-.69545-.88509-1.566-1.27991-2.61184-1.18251-1.56562.14394-2.4754,2.18544-2.72963,6.12742-.11735,1.82442-.24331,3.25804-.38148,4.29757-.46542,3.49601-1.46296,6.14177-2.99243,7.93533-1.52734,1.7918-3.66491,2.81426-6.41083,3.06852-3.57211.32904-6.54561-.69516-8.92104-3.06678-2.37719-2.37375-3.76613-5.69789-4.17448-9.97412-.19737-2.08506-.08978-3.88883.32611-5.40514.41616-1.51922,1.15674-2.83962,2.222-3.96411Z" style="fill: #fff;"/>
    <circle cx="147.76173" cy="146.46886" r="93.49821" style="fill: url(#linear-gradient); opacity: .73;"/>
    <circle cx="147.76173" cy="146.46886" r="90.73937" style="fill: none; stroke: #fff; stroke-miterlimit: 10; stroke-width: 3.3242px;"/>
    <g>
      <path d="m57.71996,220.79752l.18484-.17187c.47518-.44102.71603-.78617.72347-1.03406.00699-.24836-.1468-.54104-.46089-.87899-.18855-.20258-.54466-.4965-1.06975-.88036-.52462-.38479-.90204-.70065-1.13228-.94804-.58648-.63155-.86061-1.32703-.82239-2.08646.03776-.76036.39481-1.45346,1.06931-2.08117.77671-.72082,1.58037-1.06338,2.41096-1.02675s1.61233.44983,2.34566,1.23822c.07319.07888.56158.69611,1.46703,1.85028.90452,1.1537,1.82837,2.23863,2.77109,3.25294,1.74832,1.88204,3.65054,3.77908,5.70619,5.69158.46997.44505.7573.72382.86246.83678.75325.81172,1.1242,1.6113,1.11285,2.39919-.01228.78836-.41238,1.54828-1.19936,2.27976-.69783.64809-1.42978.97139-2.19632.96942-.76701-.0015-1.44861-.32363-2.04528-.96591-.21958-.23665-.4972-.62516-.83098-1.16505-.33425-.54036-.60121-.9172-.79948-1.13144-.34559-.37202-.6365-.56336-.87322-.57495-.23671-.01113-.63817.24644-1.20344.77223l-12.34061,11.46459c-.38136.35485-.57693.65738-.58578.90713-.00838.24928.15419.55456.48959.91538.18854.20305.54513.49603,1.06974.88082.52415.38386.90251.69972,1.13275.94758.57536.61988.84068,1.30835.79409,2.06542s-.40922,1.45108-1.08885,2.08249c-.79398.7375-1.60746,1.09444-2.44137,1.07129-.83437-.02315-1.61752-.42939-2.35039-1.21777-.063-.06768-.54954-.68164-1.45962-1.84141s-1.83068-2.2419-2.76321-3.24454c-1.74832-1.8825-3.65839-3.79352-5.72929-5.73353-.48576-.45162-.78192-.73275-.88615-.84571-.74352-.80052-1.10798-1.59542-1.09289-2.38656.01461-.79021.41891-1.5543,1.21197-2.2918.7025-.65226,1.44888-.97876,2.24054-.97902.79167-.00073,1.48583.32051,2.08297.96326.20893.22499.47542.60229.79948,1.13098.32313.52915.59009.90553.79948,1.13098.33446.36128.624.54889.86814.56377.24368.01487.64698-.2385,1.20804-.76059l12.02087-11.16811Z" style="fill: #fff;"/>
      <path d="m73.80299,237.17668c.42027-.6817.59275-1.15316.51745-1.41113-.0753-.25937-.34267-.52969-.80069-.8119-.2492-.15351-.62536-.31354-1.12847-.47917-.50312-.16609-.84633-.30461-1.02963-.41786-.55037-.33884-.88734-.89874-1.01184-1.67878-.1245-.78051.03462-1.53017.47736-2.24946.51574-.83623,1.18097-1.35095,1.99522-1.54369.81472-.19274,1.62766-.03897,2.44022.4618.09142.05616.3034.21139.63502.46335,1.8052,1.35339,3.69021,2.63452,5.65456,3.84525.71975.44367,1.64953.94488,2.78794,1.5013,1.13795.55735,1.89741.95326,2.27794,1.18726,1.03438.63742,1.41501,1.70682,1.14143,3.20632-.06724.31418-.11143.561-.13305.74325l-2.8698,18.68953c-.03682.26499-.14538.80786-.3271,1.63-.18079.82168-.39075,1.73348-.6285,2.73589.61971-1.26981,1.36035-2.66242,2.22193-4.17784.19527-.34625.32918-.57832.40125-.69526l5.58335-9.80772c.31987-.57835.47176-1.01547.45567-1.31136-.01656-.29635-.18818-.54585-.51534-.7471-.23574-.14555-.59566-.29482-1.07928-.44875-.48409-.15346-.80364-.2784-.96048-.37574-.70769-.43572-1.1154-.98426-1.22267-1.64562-.10727-.6623.09275-1.4039.60007-2.22806.58033-.94111,1.22348-1.52289,1.93041-1.74674.70692-.22246,1.46596-.08423,2.27806.41653.09142.05663.29644.20718.61599.45211,1.45066,1.13437,2.90967,2.15388,4.37702,3.0576,1.99034,1.22664,3.98902,2.33889,5.99604,3.33396.36214.17533.57524.28265.64113.32337.90398.55693,1.44014,1.21154,1.608,1.96477.16879.75323-.033,1.59436-.60537,2.52201-.49141.79818-1.09099,1.29454-1.79826,1.48909-.70821.19547-1.42869.06716-2.1619-.38446-.30117-.1858-.65219-.47365-1.05259-.86495-.4004-.3913-.67903-.63515-.83681-.73203-.33969-.21013-.65854-.27227-.95469-.18687-.29661.08493-.55232.30072-.76667.64876-.0248.03991-.05715.1077-.09751.20243-.04083.0952-.07364.16298-.09798.20289l-10.25121,16.63597c-.97486,1.58197-1.92281,2.44494-2.8434,2.5903-.92059.14537-2.59254-.52842-5.01537-2.02229-2.50173-1.54115-3.56495-3.65735-3.18918-6.34815.01672-.11576.03098-.19757.04186-.24497l2.65355-19.43642c.00538-.06882.02256-.18457.05108-.34773.17005-1.30267.42759-2.49757.77218-3.58515-.23354.37913-.54207.90962-.92605,1.59099-1.05861,1.83515-1.66314,2.90408-1.81359,3.20725l-6.06249,10.80549c-.31192.56582-.46006.99598-.4435,1.29187.01609.29635.18818.54585.51534.74756.18284.11279.5163.24615,1.0004.39961.48316.15346.84958.30694,1.09877.46045.6288.38751.9909.94332,1.08817,1.66558.09634.72319-.09862,1.47923-.58534,2.26905-.55974.90862-1.21354,1.47781-1.96049,1.70802-.74788.23021-1.51348.10266-2.29959-.38126-.09188-.05663-.31546-.22167-.67072-.49465-1.44094-1.12224-2.8684-2.11977-4.28331-2.9912-1.74207-1.07314-3.65442-2.1353-5.73614-3.18321-.56125-.2919-.91403-.48208-1.05836-.571-.89052-.54897-1.40675-1.18444-1.54868-1.9078-.14146-.72289.09201-1.57833.70089-2.5663.51949-.84273,1.09875-1.37963,1.73919-1.61257.64044-.23201,1.30058-.13881,1.98182.28099.28818.17738.63224.46148,1.03264.85278s.68645.63937.85676.74467c.44457.27425.78414.39042,1.0178.34898.23366-.04191.52037-.33805.86015-.89074l.13244-.21393,8.58698-13.93516Z" style="fill: #fff;"/>
      <path d="m105.28979,277.23789l-.03492.13336c-.22513.86244-.63855,1.45672-1.23842,1.78377-.6008.32705-1.36146.37069-2.28199.12999-.99395-.25958-1.71182-.70882-2.15407-1.3482-.44133-.63891-.55201-1.38261-.3302-2.22879.05712-.22305.22078-.69641.48957-1.41961.26786-.72367.47022-1.3448.60661-1.86523.1515-.57992.30265-1.3138.45578-2.20256.15266-.8883.26369-1.46698.33354-1.73417.29073-1.1143.84118-1.90249,1.6518-2.36549.81016-.46347,1.78679-.54537,2.93129-.24661.52741.13781,1.00005.36845,1.41699.69143s.74524.71448.98584,1.17401c.32609.60917.40585,1.53462.23882,2.77637-.07784.53601-.1236.95213-.13868,1.2493-.01908.74182.39994,1.49739,1.25567,2.26857.85573.77164,1.95366,1.33163,3.29333,1.68135,1.41448.36955,2.59966.36612,3.55695-.01121.95728-.37733,1.57161-1.08574,1.84299-2.12523.4309-1.64914-.90186-3.21239-3.99875-4.68787-1.64179-.7774-2.95185-1.45261-3.93112-2.02657-2.57411-1.46607-4.37496-3.11062-5.40114-4.93411-1.02665-1.82349-1.26199-3.79703-.70696-5.922.7103-2.7193,2.31829-4.69192,4.82443-5.91785,2.50707-1.22686,5.3749-1.41836,8.60534-.57449,1.63706.42806,3.06129,1.04975,4.27082,1.86598,1.21046.81577,2.28646,1.8864,3.22754,3.21187.0125-.10833.01958-.25715.02123-.44738.01084-.28276.02735-.46875.05095-.55797.13546-.51998.5206-.89156,1.15496-1.11522.63343-.22273,1.35023-.23026,2.14762-.02212.96049.25062,1.62666.71874,2.00083,1.4039.37325.68423.42818,1.53238.16389,2.54259-.07363.28253-.24673.79259-.5193,1.53113-.27257.73807-.47399,1.35967-.60614,1.86477-.09676.37174-.18984.87932-.27832,1.52274-.08848.64388-.16741,1.09849-.23773,1.36614-.18974.72815-.65411,1.26596-1.3922,1.61249-.73902.34699-1.57367.39826-2.50535.15566-1.65611-.43279-2.4911-1.76995-2.50542-4.0115-.0045-.28701-.01112-.50286-.02034-.64848-.01774-.84569-.37026-1.59635-1.05805-2.25247-.68686-.65518-1.6339-1.14064-2.83974-1.45591-1.42889-.37286-2.62605-.39971-3.59241-.08055-.96497.31916-1.56873.93877-1.80943,1.86022-.36059,1.38196,1.09136,2.79308,4.35676,4.23246,1.51151.66527,2.68715,1.21811,3.52598,1.65944,2.82429,1.48422,4.76038,3.15626,5.80921,5.01705,1.0479,1.86079,1.25563,4.0026.6232,6.4245-.82263,3.15006-2.60691,5.36993-5.35284,6.66101-2.74593,1.29108-5.99457,1.44579-9.74592.46599-1.83037-.4781-3.32611-1.13029-4.48536-1.95703-1.15925-.82674-2.0521-1.8697-2.67714-3.12746Z" style="fill: #fff;"/>
      <path d="m139.79829,261.85175l.01026-.25253c.02663-.64784-.04529-1.06208-.21485-1.24319s-.48501-.28091-.94635-.29987c-.27671-.01128-.73643.03164-1.37962.12828-.64319.09711-1.13313.13852-1.47123.12421-.86177-.03535-1.54531-.33562-2.05343-.90222-.50858-.56567-.74346-1.30984-.70602-2.23021.04307-1.05895.37265-1.86705.98828-2.42707.61516-.55863,1.46129-.81591,2.53698-.77185.10743.00413.88897.09778,2.34463.28003,1.45519.18178,2.8748.30111,4.25837.3575,2.56716.10505,5.25283.11241,8.05981.02208.64706-.01477,1.04709-.01884,1.20103-.01267,1.10639.04511,1.93364.35151,2.47989.91964.54672.56767.79805,1.38866.75445,2.46296-.03895.95152-.33154,1.6965-.87685,2.23493-.54485.5389-1.25606.79017-2.13225.7543-.32276-.01285-.79317-.09323-1.41078-.24162s-1.07221-.22825-1.36427-.24051c-.50739-.02052-.84906.04842-1.02455.20684-.17596.15888-.27958.62362-.31087,1.39563l-.6864,16.83025c-.02151.52134.05252.8728.22207,1.05623.16955.1839.50034.28562.99238.30562.27671.01128.73643-.03164,1.38008-.12828.64179-.09665,1.13267-.13852,1.47123-.12468.84502.03436,1.51833.33691,2.01899.9072.49927.56935.73133,1.31817.69294,2.24504-.04363,1.08267-.37048,1.90892-.97825,2.48014-.60916.57121-1.45159.83409-2.52728.79049-.09208-.0036-.86944-.09724-2.33254-.27952-1.46356-.18228-2.87852-.30159-4.24675-.35745-2.56716-.10459-5.2691-.11619-8.10488-.03574-.66337.02168-1.07133.03037-1.22526.02374-1.09151-.04459-1.91038-.35235-2.45662-.92421-.54623-.57232-.79708-1.39842-.75345-2.4811.03943-.95757.33952-1.71507.90072-2.27298.56213-.5579,1.28083-.81892,2.15701-.78305.30741.01279.76201.09265,1.36474.24005.60179.14786,1.0564.22772,1.36427.24005.49157.02.82953-.05036,1.0134-.21153.18341-.16117.29074-.62451.32201-1.39047l.66894-16.39448Z" style="fill: #fff;"/>
      <path d="m162.45024,261.66383c-.16453-.77182-.34239-1.21809-.53357-1.33928-.19072-.12073-.54234-.12671-1.05347-.01793-.25603.05485-.68635.19416-1.29187.417-.60506.22331-1.08052.37221-1.4264.44626-.84304.17961-1.58166.05263-2.2168-.38141-.6356-.43405-1.04846-1.09703-1.23858-1.98988-.22578-1.05904-.10944-1.93352.34853-2.62438s1.22115-1.15079,2.28996-1.37839c.07541-.01599.88144-.12505,2.41949-.32762,1.53758-.20211,3.02093-.45605,4.45098-.76136.96221-.20521,2.28078-.54862,3.9557-1.03161,1.67446-.48346,2.88782-.80494,3.64009-.9649,5.34129-1.13987,9.55375-.69557,12.63693,1.33199,3.08318,2.02755,5.20085,5.74502,6.3549,11.15102,1.04434,4.89719.5959,8.97288-1.3444,12.22895-1.94076,3.25653-5.18284,5.36857-9.72624,6.33796-.13546.02879-1.27666.2096-3.4236.54197-2.1474.33237-4.23638.71519-6.26787,1.14847-1.38443.29525-2.74443.64827-4.07999,1.05859-1.33649.41032-2.01266.61754-2.02709.62074-1.0232.21847-1.87911.11291-2.56868-.31716-.68957-.43007-1.14038-1.14436-1.35382-2.14335-.19378-.90914-.08616-1.69575.32288-2.35982.40857-.66407,1.04183-1.08774,1.89977-1.27102.31515-.06765.79113-.10585,1.42608-.11555.63495-.00923,1.0951-.0447,1.38139-.10595.48181-.10284.79031-.25656.92783-.46163.1366-.20554.1231-.69538-.04236-1.46999l-3.4598-16.2217Zm8.82408-.11504l3.04115,14.2605c.19424.91054.45881,1.42924.79276,1.55748.33442.12778,1.17801.04771,2.53219-.24114,2.2419-.4776,3.70915-1.63908,4.40172-3.48213.69165-1.84352.6627-4.52281-.08638-8.03743-.69883-3.27395-1.69958-5.54946-3.00179-6.82653-1.30268-1.27614-3.03005-1.68548-5.18165-1.22614l-.33843.07221c-1.39886.29845-2.20233.58985-2.40899.87373-.20713.28388-.18614,1.00771.06204,2.17056l.18739.87889Z" style="fill: #fff;"/>
      <path d="m204.60211,266.6526l-7.9923-14.3206c-.42597-.76443-.77784-1.19695-1.05421-1.29799-.27684-.10059-.61663-.03861-1.01935.18639-.24145.13491-.60156.40612-1.07894.81363-.47691.40752-.87104.69628-1.17961.86907-.75278.41997-1.48719.53161-2.20462.33541-.71743-.19667-1.29098-.68026-1.72065-1.44936-.49342-.88469-.62057-1.70428-.38189-2.46016.23775-.75541.83369-1.39877,1.78738-1.93147.05267-.0291.2344-.11493.54285-.25564,2.87175-1.35293,6.03343-2.99176,9.48365-4.91695,2.87223-1.60364,7.14196-4.12762,12.80824-7.57055.92618-.51745,1.73482-.70092,2.42545-.55133.69063.14866,1.26741.63784,1.72942,1.4666.1497.26709.36746.73724.65471,1.40905.28724.67321.53597,1.1965.74434,1.56986.26057.46798.66743,1.11839,1.21967,1.94935.55177.83142.94016,1.44687,1.16377,1.8482.55949,1.00262.71409,1.94185.46426,2.81723-.24983.87584-.88328,1.59766-1.90129,2.16547-.82783.46247-1.62986.61992-2.40608.47279-.77622-.14759-1.34359-.54277-1.70303-1.18695-.12752-.227-.28985-.59787-.48838-1.11213-.19853-.51333-.36872-.89725-.51102-1.15221-.66622-1.19373-1.38005-1.84995-2.14289-1.96958-.76284-.11917-2.31958.47684-4.67069,1.78848l-.62507.34882c-1.51769.84733-2.45154,1.54895-2.80203,2.10486-.35049.55638-.28248,1.26969.20401,2.14133l2.14465,3.84223c.2575-.07391.49828-.15533.72142-.24473.2236-.08939.42211-.18306.5969-.28055.59104-.32987.99477-.69581,1.21071-1.09734.21641-.40199.21974-.7913.01045-1.16652-.09795-.17433-.27889-.42014-.54468-.73837-.26532-.31776-.44626-.56404-.54421-.73837-.29938-.53604-.34763-1.06322-.14473-1.58062.20243-.51786.63296-.96044,1.28972-1.32681.84181-.46986,1.58061-.63638,2.21827-.49955.63625.13729,1.16483.58117,1.58387,1.33255.11966.21395.43815.86309.95408,1.94648.51686,1.08386,1.01507,2.05462,1.49371,2.91275.43429.77795.94094,1.60781,1.52044,2.48818.57995.8813.90412,1.38162.97111,1.50281.38948.69732.46607,1.35391.23211,1.96794-.23489.61495-.76019,1.14927-1.5759,1.60435-.65677.3673-1.25777.50411-1.80024.41136-.54339-.09275-.96086-.39993-1.25285-.92338-.09749-.17386-.21362-.46129-.34793-.86089-.13524-.39913-.25137-.68656-.34839-.86089-.20976-.37476-.54761-.57791-1.01356-.60758-.46595-.03013-.98839.11581-1.56591.43782-.08017.04482-.18557.11698-.31478.21556-.13015.09905-.39752.32316-.80211.67188l2.58772,4.63556c.48095.86279,1.11328,1.30054,1.89558,1.3142.78324.01366,1.95328-.41403,3.51199-1.28446,2.63311-1.46919,4.10949-2.58785,4.43008-3.35597.32012-.7672.11705-1.80196-.60877-3.1029-.14969-.26802-.40409-.64481-.7632-1.13084-.35911-.4851-.60935-.85536-.75165-1.10987-.36637-.65676-.39575-1.37597-.08535-2.1553.30947-.77933.88954-1.40693,1.74161-1.88234,1.08093-.60339,2.08719-.77075,3.01692-.50304.93065.26864,1.70021.94972,2.31006,2.04184.1885.33794.52685,1.02483,1.01738,2.06021.4896,1.03538.91528,1.87703,1.27657,2.52447.13583.24285.4064.64947.81264,1.2194.40578.569.71054,1.03622.91382,1.40026.51976.93084.6655,1.75236.43769,2.46269-.22828.71126-.8386,1.34387-1.83051,1.89782-.14822.08223-.57371.29692-1.27783.64264-3.97744,1.98506-7.9241,4.07071-11.84091,6.25694-3.54204,1.97647-6.72192,3.87571-9.54056,5.69863-.33526.21874-.52923.34313-.5833.37316-.97932.54702-1.85536.71907-2.62812.51707-.77276-.20246-1.42456-.7803-1.95633-1.73258-.4694-.84228-.61194-1.6489-.42668-2.42265.18525-.77236.66056-1.37291,1.4264-1.80074.282-.15708.71895-.33032,1.309-.51926.59051-.18848,1.01348-.35433,1.26845-.49709.44328-.24717.69861-.48482.76598-.71202.06644-.2272-.08907-.67897-.46653-1.35578Z" style="fill: #fff;"/>
      <path d="m226.46968,233.38954l-.21597-.20687c-.4097-.39319-.71316-.58784-.90853-.58346-.19584.00438-.43689.1565-.72455.45635-.13823.1446-.36628.42654-.68416.84629-.31788.42068-.58796.74711-.81165.98023-.57485.59972-1.20391.89782-1.88625.89291-.68327-.00444-1.34446-.31393-1.98588-.92801-.74802-.71728-1.15452-1.46396-1.2195-2.24052-.06544-.77656.21074-1.48671.82809-2.13092.05324-.05608.20726-.19597.46161-.42107,1.86064-1.62607,3.79147-3.48304,5.79293-5.57092.71307-.74385,1.75523-1.91904,3.12509-3.52603,1.36939-1.60653,2.4433-2.81508,3.22035-3.62567,2.22561-2.321,4.4655-3.61957,6.722-3.89757,2.2565-.27707,4.33367.49453,6.23293,2.31481,1.39732,1.34022,2.10554,2.74343,2.12372,4.21007s-.65065,3.18001-2.00695,5.14102c1.53217-1.10961,2.86395-1.75065,3.99721-1.92266,1.13232-.17108,2.27649.09419,3.43203.79719.28674.18946.56783.39519.84468.61717.27638.22291.55824.47143.84605.74788.19975.19146.4662.45806.79888.79747.33314.34127.56669.57519.69924.70267.5098.48892.93991.77289,1.2894.85189.34948.07946.66199-.02541.93937-.31414.05277-.05515.21888-.31686.49787-.78513.27853-.46874.56652-.8579.86492-1.16888.57485-.59972,1.20484-.89642,1.8895-.89058.68466.00677,1.35836.32794,2.02203.96443.85462.81908,1.2481,1.68712,1.17999,2.60178-.06765.9156-.59647,1.88899-1.58693,2.92251-.19192.19928-.58712.52339-1.18652.97184-.60032.44798-1.05436.8328-1.36303,1.1549-.17045.1775-.38933.4953-.65758.95244-.26825.45622-.49273.7791-.67346.96866-1.11794,1.1656-2.30656,1.70997-3.56586,1.63172-1.26023-.07779-2.57394-.77301-3.94253-2.08475-.31144-.2984-.68727-.66914-1.12655-1.11221-.44021-.44308-.72102-.72322-.84384-.84043-1.26756-1.21601-2.39901-1.76728-3.39297-1.65522-.99396.11346-2.23623.94648-3.72729,2.50138-.7453.77768-1.10055,1.36381-1.06715,1.75791.03386.39503.39746.92433,1.09079,1.58931l2.37801,2.27978c.42221.4044.75729.60335,1.00477.59545.24794-.00697.54213-.18866.88303-.5446.19193-.19975.41641-.52171.67346-.9682.25704-.44556.45491-.74157.59361-.8857.46838-.48802,1.03753-.6882,1.70839-.59962.67039.08858,1.33743.45112,2.0011,1.08668.79854.76631,1.24082,1.52057,1.32732,2.26372.08603.74315-.19059,1.44772-.82942,2.11464-.04296.04449-.15545.14919-.33795.31409-1.48514,1.22003-3.03161,2.66774-4.63941,4.34453-1.55457,1.62164-2.98503,3.26608-4.29092,4.93285-.2094.26899-.34025.43083-.39348.48598-.7028.73319-1.43164,1.09511-2.18838,1.08387-.75534-.01076-1.53808-.40443-2.3482-1.18148-.70863-.67852-1.08928-1.37348-1.14101-2.0844-.05267-.71093.22431-1.3834.83137-2.01602.21294-.22246.53949-.4738.97918-.7554.44015-.28114.7242-.48891.85169-.62239.27692-.28827.40347-.54548.37967-.77069-.02426-.22615-.26952-.56197-.73622-1.00934l-.18214-.17511-11.846-11.35642Zm5.32288-6.11784l3.37537,3.23615c.41063.3932.73145.54697.96389.45994.23197-.08657.62954-.42415,1.19365-1.01275,1.49106-1.55444,2.37749-2.87859,2.65978-3.97245.28228-1.09294-.00342-2.04894-.85711-2.86709-.89818-.86111-1.8533-1.17961-2.86442-.95645-1.01205.22316-2.16764,1.01279-3.46631,2.36748-.76678.79946-1.21176,1.37502-1.33495,1.72527-.12319.35118-.01284.69068.33012,1.0199Z" style="fill: #fff;"/>
    </g>
    <g style="filter: url(#drop-shadow-2);">
      <g>
        <path d="m169.68521,111.29662c-.29619,1.2008-1.68974,1.88955-3.1125,1.53872-1.42309-.35085-2.33667-1.60862-2.04074-2.80944.09628-.39056.33693-.69926.62882-.96341-3.5855-.94666-9.0261-2.44236-9.0261-2.44236,0,0,4.14738,8.5483,10.83719,9.71242,6.68981,1.16416,7.36258-5.4674,7.36258-5.4674,0,0-2.42315-.31808-4.78169-.76504.15233.38427.23331.78726.13244,1.19651Z" style="fill: #fff;"/>
        <path d="m227.93475,131.3316c-4.77447-4.72553-15.62861-8.97939-25.65952-12.79002-7.05239-2.67912-13.01428-9.17947-15.65818-12.40512l-.00299-.00109-.02986-.03835c-.91854-1.12252-1.43484-1.84587-1.43484-1.84587,0,0,.00514.00236.00523.00237,0,0-2.78677-5.09855-4.65601-6.45677-3.48842-2.53465-10.64294-5.35154-16.35176-6.3074-38.6987-6.47945-56.06354,15.98613-56.06354,15.98613,0,0,5.0185,1.25501,7.99896,2.59085,2.90602,1.30262,4.25889,2.69013,4.25889,2.69013,0,0-12.82221,6.17281-20.78764,13.84433-6.88139,6.62758-14.12224,17.74633-14.12224,17.74633l8.70374.79116s-8.95049,18.70385-18.36622,27.67393c-9.41557,8.97014-18.83281,11.48238-18.83281,11.48238,0,0,17.60531,3.44276,30.1757-1.13601,11.15037-4.06154,17.48108-6.53459,17.48108-6.53459,0,0-1.02853,5.31697-4.83207,11.00358-2.75855,4.12456-7.31325,9.03678-7.31325,9.03678,0,0,10.23074-1.3918,16.50098-6.77125,5.08354-4.36136,9.45672-12.57333,9.45672-12.57333,0,0,.32485,6.16981,2.37871,10.97496,2.36638,5.53595,7.7819,11.40393,7.7819,11.40393,0,0-.22529-3.66893-.31739-7.3049-.09225-3.63615,1.19573-8.28693,1.19573-8.28693,0,0,1.90336,4.51399,7.01861,9.48132,5.11542,4.96738,10.51947,7.03825,10.51947,7.03825,0,0-8.72163-28.19454,5.2397-47.16056,9.9836-13.56282,25.74972-23.78034,47.2817-20.79172,4.70173.65258,13.28089,2.29512,18.25781,3.94837,3.61772,1.20175,9.78821,3.77426,12.10306,6.60245,2.58431,3.15746,3.84474,2.88202,4.09444,1.0891-.33367-2.05788-1.24949-8.25691-6.02412-12.98246Zm-126.29925,32.58494c-5.01875,4.36491-16.16715,7.53584-16.16715,7.53584,0,0,7.16156-5.22974,10.88278-8.56525,3.72122-3.33552,15.35533-16.88334,15.35533-16.88334,0,0-5.05237,13.54766-10.07096,17.91275Zm9.83144-29.3194c-5.04266,2.17838-13.62014,9.13251-13.62014,9.13251,0,0,2.11761-7.95804,12.34869-12.90064,6.5832-3.18031,18.73532-3.08638,18.73532-3.08638,0,0-12.42121,4.67613-17.46388,6.85451Zm16.62972,34.08088c-.26039-4.98904,4.6221-13.84187,4.6221-13.84187,0,0-1.32382,13.0003-1.1864,16.74097.13733,3.74078,1.07042,10.44215,1.07042,10.44215,0,0-4.24582-8.35209-4.50612-13.34125Zm44.00326-49.6244c-9.82798,5.72631-27.36231-1.86876-27.36231-1.86876,1.67915.55755,5.4673.81103,8.86806.90826,4.91861.14063,7.50547-.57008,7.50547-.57008,0,0-1.82017-.80522-4.46159-3.31561-3.70168-3.51798-3.86792-6.71472-3.86792-6.71472,0,0-6.27612-3.48958-14.32858-2.23848,0,0,10.07959-5.09015,16.48113-4.02818,8.02324,1.33094,11.14955,2.87397,15.88127,4.56331,5.86126,2.09268,8.94977,1.88296,8.94977,1.88296,0,0-1.48664,7.78111-7.66529,11.3813Z" style="fill: #fff;"/>
      </g>
      <g>
        <path d="m232.73404,125.72899c-.67424-.92584-1.4743-1.79251-2.47448-2.54462-8.93679-6.72036-17.27168-9.22659-25.0287-11.40023-1.72509-.48344-3.51673-1.05409-5.28789-1.66117-1.20227-1.02181-3.38976-3.00814-6.77983-6.55069-1.28401-1.34183-2.37264-2.53972-3.26506-3.54935-.27258-4.46633-3.77356-10.30116-17.59057-14.74294-20.75956-6.67338-43.31371-2.45869-58.00685,3.85504-14.69329,6.31371-25.0585,25.88975-25.0585,25.88975l6.60858,2.53291s-10.33189,8.04556-15.1673,15.23025c-7.69109,11.42795-10.26025,19.15033-10.26025,19.15033l9.13301.56541s-2.87824,6.51696-10.08668,15.12803c-7.20829,8.61109-21.36288,18.09918-21.36288,18.09918,0,0,7.92591,5.43838,17.34607,6.98721,10.99559,1.80791,21.07982.43718,21.07982.43718,0,0-2.19393,2.88283-3.95957,4.02821-1.76551,1.14555-4.98778,3.04292-4.98778,3.04292,0,0,11.05954,4.98541,19.78372,3.97498,8.72434-1.01057,15.28224-5.26519,15.28224-5.26519,0,0,4.79611,9.76437,13.83788,16.05887,9.04175,6.29465,29.056,7.6163,29.056,7.6163,0,0-4.33608-2.08073-7.59718-5.27888-3.26111-3.19801-3.98988-6.1599-3.98988-6.1599,0,0,7.58411,4.12833,13.87064,6.13012,6.28638,2.00178,18.31219,3.7567,18.31219,3.7567,0,0-35.57346-30.88048-14.4536-60.16744,8.71673-12.08739,16.93548-15.6956,27.41344-17.93845,5.04141-1.07913,20.41617.94123,28.50442,4.06564,8.08825,3.12441,11.35179,4.39005,16.48653,10.79317,5.65796,7.05558,9.82458-20.29922-1.35757-32.08337Zm-2.86966,17.49593c-2.31478-2.82816-8.48525-5.4007-12.10301-6.60245-4.97695-1.65325-13.55605-3.29577-18.25778-3.94836-21.532-2.9886-37.29806,7.22893-47.28173,20.79171-13.96134,18.96606-5.23964,47.1606-5.23964,47.1606,0,0-5.40414-2.07088-10.51954-7.03825-5.11525-4.96736-7.01858-9.48135-7.01858-9.48135,0,0-1.28804,4.65077-1.1958,8.28693.0921,3.63599.31744,7.30492.31744,7.30492,0,0-5.41557-5.86798-7.78186-11.4039-2.05389-4.80515-2.37875-10.97496-2.37875-10.97496,0,0-4.37318,8.21194-9.45673,12.57333-6.27023,5.37944-16.50098,6.77123-16.50098,6.77123,0,0,4.55471-4.91223,7.31325-9.0368,3.80356-5.68659,4.83206-11.00355,4.83206-11.00355,0,0-6.33071,2.47303-17.48108,6.53458-12.57039,4.57878-30.1757,1.13603-30.1757,1.13603,0,0,9.41724-2.51228,18.83282-11.4824,9.41573-8.97011,18.36623-27.67391,18.36623-27.67391l-8.70375-.79118s7.24083-11.11874,14.12225-17.74634c7.96541-7.67149,20.78764-13.84433,20.78764-13.84433,0,0-1.35289-1.38748-4.2589-2.69012-2.98045-1.33586-7.99896-2.59087-7.99896-2.59087,0,0,17.36483-22.46555,56.06353-15.9861,5.70884.95586,12.86333,3.77273,16.35176,6.30739,1.86921,1.3582,4.65605,6.45678,4.65605,6.45678-.00015-.00002-.00528-.00238-.00528-.00238,0,0,.51632.72335,1.43486,1.84588l.02981.03835.00303.00108c2.64394,3.22564,8.60578,9.72599,15.65817,12.40511,10.03088,3.81061,20.88504,8.06449,25.65958,12.79003,4.77454,4.72553,5.69042,10.92455,6.02406,12.98245-.24971,1.7929-1.51005,2.06837-4.09448-1.08913Z" style="fill: url(#New_Gradient_Swatch_1-2);"/>
        <path d="m85.46837,171.45237s11.14839-3.17092,16.16712-7.53584c5.0186-4.36508,10.07098-17.91275,10.07098-17.91275,0,0-11.63409,13.54784-15.35532,16.88334-3.72123,3.3355-10.88278,8.56525-10.88278,8.56525Z" style="fill: url(#New_Gradient_Swatch_1-3);"/>
        <path d="m128.93078,127.74261s-12.15209-.09392-18.7353,3.0864c-10.23106,4.94258-12.34867,12.90063-12.34867,12.90063,0,0,8.57746-6.95414,13.62012-9.13252,5.04266-2.17838,17.46385-6.85451,17.46385-6.85451Z" style="fill: url(#New_Gradient_Swatch_1-4);"/>
        <path d="m132.71871,154.83612s-4.88238,8.85284-4.62199,13.84187c.26023,4.98916,4.50603,13.34126,4.50603,13.34126,0,0-.93301-6.70135-1.0704-10.44215-.13741-3.74065,1.18637-16.74097,1.18637-16.74097Z" style="fill: url(#New_Gradient_Swatch_1-5);"/>
        <path d="m170.81541,105.78936c-4.73167-1.68936-7.85798-3.23237-15.88122-4.56332-6.40154-1.06199-16.48109,4.0282-16.48109,4.0282,8.05242-1.25112,14.32859,2.23847,14.32859,2.23847,0,0,.16618,3.19676,3.86788,6.71475,2.64146,2.51037,4.46161,3.31559,4.46161,3.31559,0,0-2.58688.71073-7.50547.57008-3.40083-.09725-7.18895-.35072-8.86811-.90826,0,0,17.53438,7.59506,27.36233,1.86877,6.17866-3.60019,7.66528-11.38132,7.66528-11.38132,0,0-3.08845.2097-8.94978-1.88295Zm-3.84355,10.54321c-6.6898-1.16413-10.83714-9.71241-10.83714-9.71241,0,0,5.44054,1.49567,9.02604,2.44236-.29181.26412-.53245.57283-.62875.96337-.296,1.20082.61756,2.4586,2.04064,2.80946,1.42278.35083,2.8164-.33794,3.11254-1.53874.1009-.40922.01988-.81221-.13244-1.1965,2.35852.44695,4.78171.76505,4.78171.76505,0,0-.67281,6.63154-7.36261,5.46741Z" style="fill: url(#New_Gradient_Swatch_1-6);"/>
      </g>
    </g>
  </g>
</svg>